G04 #@! TF.GenerationSoftware,KiCad,Pcbnew,5.1.5-52549c5~84~ubuntu18.04.1*
G04 #@! TF.CreationDate,2020-05-30T11:40:39-04:00*
G04 #@! TF.ProjectId,Panel,50616e65-6c2e-46b6-9963-61645f706362,rev?*
G04 #@! TF.SameCoordinates,Original*
G04 #@! TF.FileFunction,Soldermask,Top*
G04 #@! TF.FilePolarity,Negative*
%FSLAX46Y46*%
G04 Gerber Fmt 4.6, Leading zero omitted, Abs format (unit mm)*
G04 Created by KiCad (PCBNEW 5.1.5-52549c5~84~ubuntu18.04.1) date 2020-05-30 11:40:39*
%MOMM*%
%LPD*%
G04 APERTURE LIST*
%ADD10C,0.100000*%
G04 APERTURE END LIST*
D10*
G36*
X147598254Y-185027818D02*
G01*
X147971511Y-185182426D01*
X147971513Y-185182427D01*
X148307436Y-185406884D01*
X148593116Y-185692564D01*
X148817574Y-186028489D01*
X148972182Y-186401746D01*
X149051000Y-186797993D01*
X149051000Y-187202007D01*
X148972182Y-187598254D01*
X148817574Y-187971511D01*
X148817573Y-187971513D01*
X148593116Y-188307436D01*
X148307436Y-188593116D01*
X147971513Y-188817573D01*
X147971512Y-188817574D01*
X147971511Y-188817574D01*
X147598254Y-188972182D01*
X147202007Y-189051000D01*
X146797993Y-189051000D01*
X146401746Y-188972182D01*
X146028489Y-188817574D01*
X146028488Y-188817574D01*
X146028487Y-188817573D01*
X145692564Y-188593116D01*
X145406884Y-188307436D01*
X145182427Y-187971513D01*
X145182426Y-187971511D01*
X145027818Y-187598254D01*
X144949000Y-187202007D01*
X144949000Y-186797993D01*
X145027818Y-186401746D01*
X145182426Y-186028489D01*
X145406884Y-185692564D01*
X145692564Y-185406884D01*
X146028487Y-185182427D01*
X146028489Y-185182426D01*
X146401746Y-185027818D01*
X146797993Y-184949000D01*
X147202007Y-184949000D01*
X147598254Y-185027818D01*
G37*
G36*
X53598254Y-185027818D02*
G01*
X53971511Y-185182426D01*
X53971513Y-185182427D01*
X54307436Y-185406884D01*
X54593116Y-185692564D01*
X54817574Y-186028489D01*
X54972182Y-186401746D01*
X55051000Y-186797993D01*
X55051000Y-187202007D01*
X54972182Y-187598254D01*
X54817574Y-187971511D01*
X54817573Y-187971513D01*
X54593116Y-188307436D01*
X54307436Y-188593116D01*
X53971513Y-188817573D01*
X53971512Y-188817574D01*
X53971511Y-188817574D01*
X53598254Y-188972182D01*
X53202007Y-189051000D01*
X52797993Y-189051000D01*
X52401746Y-188972182D01*
X52028489Y-188817574D01*
X52028488Y-188817574D01*
X52028487Y-188817573D01*
X51692564Y-188593116D01*
X51406884Y-188307436D01*
X51182427Y-187971513D01*
X51182426Y-187971511D01*
X51027818Y-187598254D01*
X50949000Y-187202007D01*
X50949000Y-186797993D01*
X51027818Y-186401746D01*
X51182426Y-186028489D01*
X51406884Y-185692564D01*
X51692564Y-185406884D01*
X52028487Y-185182427D01*
X52028489Y-185182426D01*
X52401746Y-185027818D01*
X52797993Y-184949000D01*
X53202007Y-184949000D01*
X53598254Y-185027818D01*
G37*
G36*
X102056700Y-159219965D02*
G01*
X103339899Y-159751484D01*
X103339901Y-159751485D01*
X104494751Y-160523130D01*
X105476870Y-161505249D01*
X106248515Y-162660099D01*
X106248516Y-162660101D01*
X106780035Y-163943300D01*
X107051000Y-165305536D01*
X107051000Y-166694464D01*
X106780035Y-168056700D01*
X106248516Y-169339899D01*
X106248515Y-169339901D01*
X105476870Y-170494751D01*
X104494751Y-171476870D01*
X103339901Y-172248515D01*
X103339900Y-172248516D01*
X103339899Y-172248516D01*
X102056700Y-172780035D01*
X100694464Y-173051000D01*
X99305536Y-173051000D01*
X97943300Y-172780035D01*
X96660101Y-172248516D01*
X96660100Y-172248516D01*
X96660099Y-172248515D01*
X95505249Y-171476870D01*
X94523130Y-170494751D01*
X93751485Y-169339901D01*
X93751484Y-169339899D01*
X93219965Y-168056700D01*
X92949000Y-166694464D01*
X92949000Y-165305536D01*
X93219965Y-163943300D01*
X93751484Y-162660101D01*
X93751485Y-162660099D01*
X94523130Y-161505249D01*
X95505249Y-160523130D01*
X96660099Y-159751485D01*
X96660101Y-159751484D01*
X97943300Y-159219965D01*
X99305536Y-158949000D01*
X100694464Y-158949000D01*
X102056700Y-159219965D01*
G37*
G36*
X62056700Y-159219965D02*
G01*
X63339899Y-159751484D01*
X63339901Y-159751485D01*
X64494751Y-160523130D01*
X65476870Y-161505249D01*
X66248515Y-162660099D01*
X66248516Y-162660101D01*
X66780035Y-163943300D01*
X67051000Y-165305536D01*
X67051000Y-166694464D01*
X66780035Y-168056700D01*
X66248516Y-169339899D01*
X66248515Y-169339901D01*
X65476870Y-170494751D01*
X64494751Y-171476870D01*
X63339901Y-172248515D01*
X63339900Y-172248516D01*
X63339899Y-172248516D01*
X62056700Y-172780035D01*
X60694464Y-173051000D01*
X59305536Y-173051000D01*
X57943300Y-172780035D01*
X56660101Y-172248516D01*
X56660100Y-172248516D01*
X56660099Y-172248515D01*
X55505249Y-171476870D01*
X54523130Y-170494751D01*
X53751485Y-169339901D01*
X53751484Y-169339899D01*
X53219965Y-168056700D01*
X52949000Y-166694464D01*
X52949000Y-165305536D01*
X53219965Y-163943300D01*
X53751484Y-162660101D01*
X53751485Y-162660099D01*
X54523130Y-161505249D01*
X55505249Y-160523130D01*
X56660099Y-159751485D01*
X56660101Y-159751484D01*
X57943300Y-159219965D01*
X59305536Y-158949000D01*
X60694464Y-158949000D01*
X62056700Y-159219965D01*
G37*
G36*
X82056700Y-159219965D02*
G01*
X83339899Y-159751484D01*
X83339901Y-159751485D01*
X84494751Y-160523130D01*
X85476870Y-161505249D01*
X86248515Y-162660099D01*
X86248516Y-162660101D01*
X86780035Y-163943300D01*
X87051000Y-165305536D01*
X87051000Y-166694464D01*
X86780035Y-168056700D01*
X86248516Y-169339899D01*
X86248515Y-169339901D01*
X85476870Y-170494751D01*
X84494751Y-171476870D01*
X83339901Y-172248515D01*
X83339900Y-172248516D01*
X83339899Y-172248516D01*
X82056700Y-172780035D01*
X80694464Y-173051000D01*
X79305536Y-173051000D01*
X77943300Y-172780035D01*
X76660101Y-172248516D01*
X76660100Y-172248516D01*
X76660099Y-172248515D01*
X75505249Y-171476870D01*
X74523130Y-170494751D01*
X73751485Y-169339901D01*
X73751484Y-169339899D01*
X73219965Y-168056700D01*
X72949000Y-166694464D01*
X72949000Y-165305536D01*
X73219965Y-163943300D01*
X73751484Y-162660101D01*
X73751485Y-162660099D01*
X74523130Y-161505249D01*
X75505249Y-160523130D01*
X76660099Y-159751485D01*
X76660101Y-159751484D01*
X77943300Y-159219965D01*
X79305536Y-158949000D01*
X80694464Y-158949000D01*
X82056700Y-159219965D01*
G37*
G36*
X122056700Y-159219965D02*
G01*
X123339899Y-159751484D01*
X123339901Y-159751485D01*
X124494751Y-160523130D01*
X125476870Y-161505249D01*
X126248515Y-162660099D01*
X126248516Y-162660101D01*
X126780035Y-163943300D01*
X127051000Y-165305536D01*
X127051000Y-166694464D01*
X126780035Y-168056700D01*
X126248516Y-169339899D01*
X126248515Y-169339901D01*
X125476870Y-170494751D01*
X124494751Y-171476870D01*
X123339901Y-172248515D01*
X123339900Y-172248516D01*
X123339899Y-172248516D01*
X122056700Y-172780035D01*
X120694464Y-173051000D01*
X119305536Y-173051000D01*
X117943300Y-172780035D01*
X116660101Y-172248516D01*
X116660100Y-172248516D01*
X116660099Y-172248515D01*
X115505249Y-171476870D01*
X114523130Y-170494751D01*
X113751485Y-169339901D01*
X113751484Y-169339899D01*
X113219965Y-168056700D01*
X112949000Y-166694464D01*
X112949000Y-165305536D01*
X113219965Y-163943300D01*
X113751484Y-162660101D01*
X113751485Y-162660099D01*
X114523130Y-161505249D01*
X115505249Y-160523130D01*
X116660099Y-159751485D01*
X116660101Y-159751484D01*
X117943300Y-159219965D01*
X119305536Y-158949000D01*
X120694464Y-158949000D01*
X122056700Y-159219965D01*
G37*
G36*
X142056700Y-159219965D02*
G01*
X143339899Y-159751484D01*
X143339901Y-159751485D01*
X144494751Y-160523130D01*
X145476870Y-161505249D01*
X146248515Y-162660099D01*
X146248516Y-162660101D01*
X146780035Y-163943300D01*
X147051000Y-165305536D01*
X147051000Y-166694464D01*
X146780035Y-168056700D01*
X146248516Y-169339899D01*
X146248515Y-169339901D01*
X145476870Y-170494751D01*
X144494751Y-171476870D01*
X143339901Y-172248515D01*
X143339900Y-172248516D01*
X143339899Y-172248516D01*
X142056700Y-172780035D01*
X140694464Y-173051000D01*
X139305536Y-173051000D01*
X137943300Y-172780035D01*
X136660101Y-172248516D01*
X136660100Y-172248516D01*
X136660099Y-172248515D01*
X135505249Y-171476870D01*
X134523130Y-170494751D01*
X133751485Y-169339901D01*
X133751484Y-169339899D01*
X133219965Y-168056700D01*
X132949000Y-166694464D01*
X132949000Y-165305536D01*
X133219965Y-163943300D01*
X133751484Y-162660101D01*
X133751485Y-162660099D01*
X134523130Y-161505249D01*
X135505249Y-160523130D01*
X136660099Y-159751485D01*
X136660101Y-159751484D01*
X137943300Y-159219965D01*
X139305536Y-158949000D01*
X140694464Y-158949000D01*
X142056700Y-159219965D01*
G37*
G36*
X142056700Y-137219965D02*
G01*
X143339899Y-137751484D01*
X143339901Y-137751485D01*
X144494751Y-138523130D01*
X145476870Y-139505249D01*
X146248515Y-140660099D01*
X146248516Y-140660101D01*
X146780035Y-141943300D01*
X147051000Y-143305536D01*
X147051000Y-144694464D01*
X146780035Y-146056700D01*
X146248516Y-147339899D01*
X146248515Y-147339901D01*
X145476870Y-148494751D01*
X144494751Y-149476870D01*
X143339901Y-150248515D01*
X143339900Y-150248516D01*
X143339899Y-150248516D01*
X142056700Y-150780035D01*
X140694464Y-151051000D01*
X139305536Y-151051000D01*
X137943300Y-150780035D01*
X136660101Y-150248516D01*
X136660100Y-150248516D01*
X136660099Y-150248515D01*
X135505249Y-149476870D01*
X134523130Y-148494751D01*
X133751485Y-147339901D01*
X133751484Y-147339899D01*
X133219965Y-146056700D01*
X132949000Y-144694464D01*
X132949000Y-143305536D01*
X133219965Y-141943300D01*
X133751484Y-140660101D01*
X133751485Y-140660099D01*
X134523130Y-139505249D01*
X135505249Y-138523130D01*
X136660099Y-137751485D01*
X136660101Y-137751484D01*
X137943300Y-137219965D01*
X139305536Y-136949000D01*
X140694464Y-136949000D01*
X142056700Y-137219965D01*
G37*
G36*
X122056700Y-137219965D02*
G01*
X123339899Y-137751484D01*
X123339901Y-137751485D01*
X124494751Y-138523130D01*
X125476870Y-139505249D01*
X126248515Y-140660099D01*
X126248516Y-140660101D01*
X126780035Y-141943300D01*
X127051000Y-143305536D01*
X127051000Y-144694464D01*
X126780035Y-146056700D01*
X126248516Y-147339899D01*
X126248515Y-147339901D01*
X125476870Y-148494751D01*
X124494751Y-149476870D01*
X123339901Y-150248515D01*
X123339900Y-150248516D01*
X123339899Y-150248516D01*
X122056700Y-150780035D01*
X120694464Y-151051000D01*
X119305536Y-151051000D01*
X117943300Y-150780035D01*
X116660101Y-150248516D01*
X116660100Y-150248516D01*
X116660099Y-150248515D01*
X115505249Y-149476870D01*
X114523130Y-148494751D01*
X113751485Y-147339901D01*
X113751484Y-147339899D01*
X113219965Y-146056700D01*
X112949000Y-144694464D01*
X112949000Y-143305536D01*
X113219965Y-141943300D01*
X113751484Y-140660101D01*
X113751485Y-140660099D01*
X114523130Y-139505249D01*
X115505249Y-138523130D01*
X116660099Y-137751485D01*
X116660101Y-137751484D01*
X117943300Y-137219965D01*
X119305536Y-136949000D01*
X120694464Y-136949000D01*
X122056700Y-137219965D01*
G37*
G36*
X102056700Y-137219965D02*
G01*
X103339899Y-137751484D01*
X103339901Y-137751485D01*
X104494751Y-138523130D01*
X105476870Y-139505249D01*
X106248515Y-140660099D01*
X106248516Y-140660101D01*
X106780035Y-141943300D01*
X107051000Y-143305536D01*
X107051000Y-144694464D01*
X106780035Y-146056700D01*
X106248516Y-147339899D01*
X106248515Y-147339901D01*
X105476870Y-148494751D01*
X104494751Y-149476870D01*
X103339901Y-150248515D01*
X103339900Y-150248516D01*
X103339899Y-150248516D01*
X102056700Y-150780035D01*
X100694464Y-151051000D01*
X99305536Y-151051000D01*
X97943300Y-150780035D01*
X96660101Y-150248516D01*
X96660100Y-150248516D01*
X96660099Y-150248515D01*
X95505249Y-149476870D01*
X94523130Y-148494751D01*
X93751485Y-147339901D01*
X93751484Y-147339899D01*
X93219965Y-146056700D01*
X92949000Y-144694464D01*
X92949000Y-143305536D01*
X93219965Y-141943300D01*
X93751484Y-140660101D01*
X93751485Y-140660099D01*
X94523130Y-139505249D01*
X95505249Y-138523130D01*
X96660099Y-137751485D01*
X96660101Y-137751484D01*
X97943300Y-137219965D01*
X99305536Y-136949000D01*
X100694464Y-136949000D01*
X102056700Y-137219965D01*
G37*
G36*
X82056700Y-137219965D02*
G01*
X83339899Y-137751484D01*
X83339901Y-137751485D01*
X84494751Y-138523130D01*
X85476870Y-139505249D01*
X86248515Y-140660099D01*
X86248516Y-140660101D01*
X86780035Y-141943300D01*
X87051000Y-143305536D01*
X87051000Y-144694464D01*
X86780035Y-146056700D01*
X86248516Y-147339899D01*
X86248515Y-147339901D01*
X85476870Y-148494751D01*
X84494751Y-149476870D01*
X83339901Y-150248515D01*
X83339900Y-150248516D01*
X83339899Y-150248516D01*
X82056700Y-150780035D01*
X80694464Y-151051000D01*
X79305536Y-151051000D01*
X77943300Y-150780035D01*
X76660101Y-150248516D01*
X76660100Y-150248516D01*
X76660099Y-150248515D01*
X75505249Y-149476870D01*
X74523130Y-148494751D01*
X73751485Y-147339901D01*
X73751484Y-147339899D01*
X73219965Y-146056700D01*
X72949000Y-144694464D01*
X72949000Y-143305536D01*
X73219965Y-141943300D01*
X73751484Y-140660101D01*
X73751485Y-140660099D01*
X74523130Y-139505249D01*
X75505249Y-138523130D01*
X76660099Y-137751485D01*
X76660101Y-137751484D01*
X77943300Y-137219965D01*
X79305536Y-136949000D01*
X80694464Y-136949000D01*
X82056700Y-137219965D01*
G37*
G36*
X62056700Y-137219965D02*
G01*
X63339899Y-137751484D01*
X63339901Y-137751485D01*
X64494751Y-138523130D01*
X65476870Y-139505249D01*
X66248515Y-140660099D01*
X66248516Y-140660101D01*
X66780035Y-141943300D01*
X67051000Y-143305536D01*
X67051000Y-144694464D01*
X66780035Y-146056700D01*
X66248516Y-147339899D01*
X66248515Y-147339901D01*
X65476870Y-148494751D01*
X64494751Y-149476870D01*
X63339901Y-150248515D01*
X63339900Y-150248516D01*
X63339899Y-150248516D01*
X62056700Y-150780035D01*
X60694464Y-151051000D01*
X59305536Y-151051000D01*
X57943300Y-150780035D01*
X56660101Y-150248516D01*
X56660100Y-150248516D01*
X56660099Y-150248515D01*
X55505249Y-149476870D01*
X54523130Y-148494751D01*
X53751485Y-147339901D01*
X53751484Y-147339899D01*
X53219965Y-146056700D01*
X52949000Y-144694464D01*
X52949000Y-143305536D01*
X53219965Y-141943300D01*
X53751484Y-140660101D01*
X53751485Y-140660099D01*
X54523130Y-139505249D01*
X55505249Y-138523130D01*
X56660099Y-137751485D01*
X56660101Y-137751484D01*
X57943300Y-137219965D01*
X59305536Y-136949000D01*
X60694464Y-136949000D01*
X62056700Y-137219965D01*
G37*
G36*
X136327477Y-109623892D02*
G01*
X136670541Y-109765994D01*
X137155707Y-109966956D01*
X137901093Y-110465008D01*
X138534992Y-111098907D01*
X139033044Y-111844293D01*
X139234006Y-112329459D01*
X139376108Y-112672523D01*
X139551000Y-113551764D01*
X139551000Y-114448236D01*
X139376108Y-115327477D01*
X139234006Y-115670541D01*
X139033044Y-116155707D01*
X138534992Y-116901093D01*
X137901093Y-117534992D01*
X137155707Y-118033044D01*
X136670541Y-118234006D01*
X136327477Y-118376108D01*
X135448236Y-118551000D01*
X134551764Y-118551000D01*
X133672523Y-118376108D01*
X133329459Y-118234006D01*
X132844293Y-118033044D01*
X132098907Y-117534992D01*
X131465008Y-116901093D01*
X130966956Y-116155707D01*
X130765994Y-115670541D01*
X130623892Y-115327477D01*
X130449000Y-114448236D01*
X130449000Y-113551764D01*
X130623892Y-112672523D01*
X130765994Y-112329459D01*
X130966956Y-111844293D01*
X131465008Y-111098907D01*
X132098907Y-110465008D01*
X132844293Y-109966956D01*
X133329459Y-109765994D01*
X133672523Y-109623892D01*
X134551764Y-109449000D01*
X135448236Y-109449000D01*
X136327477Y-109623892D01*
G37*
G36*
X91327477Y-109623892D02*
G01*
X91670541Y-109765994D01*
X92155707Y-109966956D01*
X92901093Y-110465008D01*
X93534992Y-111098907D01*
X94033044Y-111844293D01*
X94234006Y-112329459D01*
X94376108Y-112672523D01*
X94551000Y-113551764D01*
X94551000Y-114448236D01*
X94376108Y-115327477D01*
X94234006Y-115670541D01*
X94033044Y-116155707D01*
X93534992Y-116901093D01*
X92901093Y-117534992D01*
X92155707Y-118033044D01*
X91670541Y-118234006D01*
X91327477Y-118376108D01*
X90448236Y-118551000D01*
X89551764Y-118551000D01*
X88672523Y-118376108D01*
X88329459Y-118234006D01*
X87844293Y-118033044D01*
X87098907Y-117534992D01*
X86465008Y-116901093D01*
X85966956Y-116155707D01*
X85765994Y-115670541D01*
X85623892Y-115327477D01*
X85449000Y-114448236D01*
X85449000Y-113551764D01*
X85623892Y-112672523D01*
X85765994Y-112329459D01*
X85966956Y-111844293D01*
X86465008Y-111098907D01*
X87098907Y-110465008D01*
X87844293Y-109966956D01*
X88329459Y-109765994D01*
X88672523Y-109623892D01*
X89551764Y-109449000D01*
X90448236Y-109449000D01*
X91327477Y-109623892D01*
G37*
G36*
X111327477Y-75623892D02*
G01*
X111670541Y-75765994D01*
X112155707Y-75966956D01*
X112901093Y-76465008D01*
X113534992Y-77098907D01*
X114033044Y-77844293D01*
X114234006Y-78329459D01*
X114376108Y-78672523D01*
X114551000Y-79551764D01*
X114551000Y-80448236D01*
X114376108Y-81327477D01*
X114234006Y-81670541D01*
X114033044Y-82155707D01*
X113534992Y-82901093D01*
X112901093Y-83534992D01*
X112155707Y-84033044D01*
X111670541Y-84234006D01*
X111327477Y-84376108D01*
X110448236Y-84551000D01*
X109551764Y-84551000D01*
X108672523Y-84376108D01*
X108329459Y-84234006D01*
X107844293Y-84033044D01*
X107098907Y-83534992D01*
X106465008Y-82901093D01*
X105966956Y-82155707D01*
X105765994Y-81670541D01*
X105623892Y-81327477D01*
X105449000Y-80448236D01*
X105449000Y-79551764D01*
X105623892Y-78672523D01*
X105765994Y-78329459D01*
X105966956Y-77844293D01*
X106465008Y-77098907D01*
X107098907Y-76465008D01*
X107844293Y-75966956D01*
X108329459Y-75765994D01*
X108672523Y-75623892D01*
X109551764Y-75449000D01*
X110448236Y-75449000D01*
X111327477Y-75623892D01*
G37*
G36*
X66327477Y-75623892D02*
G01*
X66670541Y-75765994D01*
X67155707Y-75966956D01*
X67901093Y-76465008D01*
X68534992Y-77098907D01*
X69033044Y-77844293D01*
X69234006Y-78329459D01*
X69376108Y-78672523D01*
X69551000Y-79551764D01*
X69551000Y-80448236D01*
X69376108Y-81327477D01*
X69234006Y-81670541D01*
X69033044Y-82155707D01*
X68534992Y-82901093D01*
X67901093Y-83534992D01*
X67155707Y-84033044D01*
X66670541Y-84234006D01*
X66327477Y-84376108D01*
X65448236Y-84551000D01*
X64551764Y-84551000D01*
X63672523Y-84376108D01*
X63329459Y-84234006D01*
X62844293Y-84033044D01*
X62098907Y-83534992D01*
X61465008Y-82901093D01*
X60966956Y-82155707D01*
X60765994Y-81670541D01*
X60623892Y-81327477D01*
X60449000Y-80448236D01*
X60449000Y-79551764D01*
X60623892Y-78672523D01*
X60765994Y-78329459D01*
X60966956Y-77844293D01*
X61465008Y-77098907D01*
X62098907Y-76465008D01*
X62844293Y-75966956D01*
X63329459Y-75765994D01*
X63672523Y-75623892D01*
X64551764Y-75449000D01*
X65448236Y-75449000D01*
X66327477Y-75623892D01*
G37*
G36*
X91327477Y-44623892D02*
G01*
X91670541Y-44765994D01*
X92155707Y-44966956D01*
X92901093Y-45465008D01*
X93534992Y-46098907D01*
X94033044Y-46844293D01*
X94234006Y-47329459D01*
X94376108Y-47672523D01*
X94551000Y-48551764D01*
X94551000Y-49448236D01*
X94376108Y-50327477D01*
X94234006Y-50670541D01*
X94033044Y-51155707D01*
X93534992Y-51901093D01*
X92901093Y-52534992D01*
X92155707Y-53033044D01*
X91670541Y-53234006D01*
X91327477Y-53376108D01*
X90448236Y-53551000D01*
X89551764Y-53551000D01*
X88672523Y-53376108D01*
X88329459Y-53234006D01*
X87844293Y-53033044D01*
X87098907Y-52534992D01*
X86465008Y-51901093D01*
X85966956Y-51155707D01*
X85765994Y-50670541D01*
X85623892Y-50327477D01*
X85449000Y-49448236D01*
X85449000Y-48551764D01*
X85623892Y-47672523D01*
X85765994Y-47329459D01*
X85966956Y-46844293D01*
X86465008Y-46098907D01*
X87098907Y-45465008D01*
X87844293Y-44966956D01*
X88329459Y-44765994D01*
X88672523Y-44623892D01*
X89551764Y-44449000D01*
X90448236Y-44449000D01*
X91327477Y-44623892D01*
G37*
G36*
X136327477Y-44623892D02*
G01*
X136670541Y-44765994D01*
X137155707Y-44966956D01*
X137901093Y-45465008D01*
X138534992Y-46098907D01*
X139033044Y-46844293D01*
X139234006Y-47329459D01*
X139376108Y-47672523D01*
X139551000Y-48551764D01*
X139551000Y-49448236D01*
X139376108Y-50327477D01*
X139234006Y-50670541D01*
X139033044Y-51155707D01*
X138534992Y-51901093D01*
X137901093Y-52534992D01*
X137155707Y-53033044D01*
X136670541Y-53234006D01*
X136327477Y-53376108D01*
X135448236Y-53551000D01*
X134551764Y-53551000D01*
X133672523Y-53376108D01*
X133329459Y-53234006D01*
X132844293Y-53033044D01*
X132098907Y-52534992D01*
X131465008Y-51901093D01*
X130966956Y-51155707D01*
X130765994Y-50670541D01*
X130623892Y-50327477D01*
X130449000Y-49448236D01*
X130449000Y-48551764D01*
X130623892Y-47672523D01*
X130765994Y-47329459D01*
X130966956Y-46844293D01*
X131465008Y-46098907D01*
X132098907Y-45465008D01*
X132844293Y-44966956D01*
X133329459Y-44765994D01*
X133672523Y-44623892D01*
X134551764Y-44449000D01*
X135448236Y-44449000D01*
X136327477Y-44623892D01*
G37*
G36*
X66327477Y-10623892D02*
G01*
X66670541Y-10765994D01*
X67155707Y-10966956D01*
X67901093Y-11465008D01*
X68534992Y-12098907D01*
X69033044Y-12844293D01*
X69234006Y-13329459D01*
X69376108Y-13672523D01*
X69551000Y-14551764D01*
X69551000Y-15448236D01*
X69376108Y-16327477D01*
X69234006Y-16670541D01*
X69033044Y-17155707D01*
X68534992Y-17901093D01*
X67901093Y-18534992D01*
X67155707Y-19033044D01*
X66670541Y-19234006D01*
X66327477Y-19376108D01*
X65448236Y-19551000D01*
X64551764Y-19551000D01*
X63672523Y-19376108D01*
X63329459Y-19234006D01*
X62844293Y-19033044D01*
X62098907Y-18534992D01*
X61465008Y-17901093D01*
X60966956Y-17155707D01*
X60765994Y-16670541D01*
X60623892Y-16327477D01*
X60449000Y-15448236D01*
X60449000Y-14551764D01*
X60623892Y-13672523D01*
X60765994Y-13329459D01*
X60966956Y-12844293D01*
X61465008Y-12098907D01*
X62098907Y-11465008D01*
X62844293Y-10966956D01*
X63329459Y-10765994D01*
X63672523Y-10623892D01*
X64551764Y-10449000D01*
X65448236Y-10449000D01*
X66327477Y-10623892D01*
G37*
G36*
X111327477Y-10623892D02*
G01*
X111670541Y-10765994D01*
X112155707Y-10966956D01*
X112901093Y-11465008D01*
X113534992Y-12098907D01*
X114033044Y-12844293D01*
X114234006Y-13329459D01*
X114376108Y-13672523D01*
X114551000Y-14551764D01*
X114551000Y-15448236D01*
X114376108Y-16327477D01*
X114234006Y-16670541D01*
X114033044Y-17155707D01*
X113534992Y-17901093D01*
X112901093Y-18534992D01*
X112155707Y-19033044D01*
X111670541Y-19234006D01*
X111327477Y-19376108D01*
X110448236Y-19551000D01*
X109551764Y-19551000D01*
X108672523Y-19376108D01*
X108329459Y-19234006D01*
X107844293Y-19033044D01*
X107098907Y-18534992D01*
X106465008Y-17901093D01*
X105966956Y-17155707D01*
X105765994Y-16670541D01*
X105623892Y-16327477D01*
X105449000Y-15448236D01*
X105449000Y-14551764D01*
X105623892Y-13672523D01*
X105765994Y-13329459D01*
X105966956Y-12844293D01*
X106465008Y-12098907D01*
X107098907Y-11465008D01*
X107844293Y-10966956D01*
X108329459Y-10765994D01*
X108672523Y-10623892D01*
X109551764Y-10449000D01*
X110448236Y-10449000D01*
X111327477Y-10623892D01*
G37*
G36*
X53598254Y8972182D02*
G01*
X53971511Y8817574D01*
X53971513Y8817573D01*
X54307436Y8593116D01*
X54593116Y8307436D01*
X54817574Y7971511D01*
X54972182Y7598254D01*
X55051000Y7202007D01*
X55051000Y6797993D01*
X54972182Y6401746D01*
X54817574Y6028489D01*
X54817573Y6028487D01*
X54593116Y5692564D01*
X54307436Y5406884D01*
X53971513Y5182427D01*
X53971512Y5182426D01*
X53971511Y5182426D01*
X53598254Y5027818D01*
X53202007Y4949000D01*
X52797993Y4949000D01*
X52401746Y5027818D01*
X52028489Y5182426D01*
X52028488Y5182426D01*
X52028487Y5182427D01*
X51692564Y5406884D01*
X51406884Y5692564D01*
X51182427Y6028487D01*
X51182426Y6028489D01*
X51027818Y6401746D01*
X50949000Y6797993D01*
X50949000Y7202007D01*
X51027818Y7598254D01*
X51182426Y7971511D01*
X51406884Y8307436D01*
X51692564Y8593116D01*
X52028487Y8817573D01*
X52028489Y8817574D01*
X52401746Y8972182D01*
X52797993Y9051000D01*
X53202007Y9051000D01*
X53598254Y8972182D01*
G37*
G36*
X147598254Y8972182D02*
G01*
X147971511Y8817574D01*
X147971513Y8817573D01*
X148307436Y8593116D01*
X148593116Y8307436D01*
X148817574Y7971511D01*
X148972182Y7598254D01*
X149051000Y7202007D01*
X149051000Y6797993D01*
X148972182Y6401746D01*
X148817574Y6028489D01*
X148817573Y6028487D01*
X148593116Y5692564D01*
X148307436Y5406884D01*
X147971513Y5182427D01*
X147971512Y5182426D01*
X147971511Y5182426D01*
X147598254Y5027818D01*
X147202007Y4949000D01*
X146797993Y4949000D01*
X146401746Y5027818D01*
X146028489Y5182426D01*
X146028488Y5182426D01*
X146028487Y5182427D01*
X145692564Y5406884D01*
X145406884Y5692564D01*
X145182427Y6028487D01*
X145182426Y6028489D01*
X145027818Y6401746D01*
X144949000Y6797993D01*
X144949000Y7202007D01*
X145027818Y7598254D01*
X145182426Y7971511D01*
X145406884Y8307436D01*
X145692564Y8593116D01*
X146028487Y8817573D01*
X146028489Y8817574D01*
X146401746Y8972182D01*
X146797993Y9051000D01*
X147202007Y9051000D01*
X147598254Y8972182D01*
G37*
M02*
