M48
; DRILL file {KiCad 5.1.5-52549c5~84~ubuntu18.04.1} date Sat 30 May 2020 11:40:43 AM EDT
; FORMAT={-:-/ absolute / inch / decimal}
; #@! TF.CreationDate,2020-05-30T11:40:43-04:00
; #@! TF.GenerationSoftware,Kicad,Pcbnew,5.1.5-52549c5~84~ubuntu18.04.1
; #@! TF.FileFunction,Plated,1,2,PTH
FMAT,2
INCH
T1C0.1260
T2C0.2756
T3C0.3937
%
G90
G05
T1
X5.7874Y-7.3622
X2.0866Y0.2756
X5.7874Y0.2756
X2.0866Y-7.3622
T2
X3.5433Y-4.4882
X2.5591Y-3.1496
X3.5433Y-1.9291
X4.3307Y-0.5906
X2.5591Y-0.5906
X4.3307Y-3.1496
X5.315Y-1.9291
X5.315Y-4.4882
T3
X3.937Y-6.5354
X5.5118Y-6.5354
X4.7244Y-6.5354
X3.1496Y-6.5354
X2.3622Y-6.5354
X2.3622Y-5.6693
X3.1496Y-5.6693
X5.5118Y-5.6693
X3.937Y-5.6693
X4.7244Y-5.6693
T0
M30
