G04 #@! TF.GenerationSoftware,KiCad,Pcbnew,5.1.5-52549c5~84~ubuntu18.04.1*
G04 #@! TF.CreationDate,2020-05-30T11:40:39-04:00*
G04 #@! TF.ProjectId,Panel,50616e65-6c2e-46b6-9963-61645f706362,rev?*
G04 #@! TF.SameCoordinates,Original*
G04 #@! TF.FileFunction,Legend,Bot*
G04 #@! TF.FilePolarity,Positive*
%FSLAX46Y46*%
G04 Gerber Fmt 4.6, Leading zero omitted, Abs format (unit mm)*
G04 Created by KiCad (PCBNEW 5.1.5-52549c5~84~ubuntu18.04.1) date 2020-05-30 11:40:39*
%MOMM*%
%LPD*%
G04 APERTURE LIST*
%ADD10C,0.150000*%
G04 APERTURE END LIST*
D10*
X104619047Y-179452380D02*
X104619047Y-180166666D01*
X104666666Y-180309523D01*
X104761904Y-180404761D01*
X104904761Y-180452380D01*
X105000000Y-180452380D01*
X103666666Y-180452380D02*
X104142857Y-180452380D01*
X104142857Y-179452380D01*
X102761904Y-180357142D02*
X102809523Y-180404761D01*
X102952380Y-180452380D01*
X103047619Y-180452380D01*
X103190476Y-180404761D01*
X103285714Y-180309523D01*
X103333333Y-180214285D01*
X103380952Y-180023809D01*
X103380952Y-179880952D01*
X103333333Y-179690476D01*
X103285714Y-179595238D01*
X103190476Y-179500000D01*
X103047619Y-179452380D01*
X102952380Y-179452380D01*
X102809523Y-179500000D01*
X102761904Y-179547619D01*
X102047619Y-179452380D02*
X102047619Y-180166666D01*
X102095238Y-180309523D01*
X102190476Y-180404761D01*
X102333333Y-180452380D01*
X102428571Y-180452380D01*
X101095238Y-180452380D02*
X101571428Y-180452380D01*
X101571428Y-179452380D01*
X100190476Y-180357142D02*
X100238095Y-180404761D01*
X100380952Y-180452380D01*
X100476190Y-180452380D01*
X100619047Y-180404761D01*
X100714285Y-180309523D01*
X100761904Y-180214285D01*
X100809523Y-180023809D01*
X100809523Y-179880952D01*
X100761904Y-179690476D01*
X100714285Y-179595238D01*
X100619047Y-179500000D01*
X100476190Y-179452380D01*
X100380952Y-179452380D01*
X100238095Y-179500000D01*
X100190476Y-179547619D01*
X99476190Y-179452380D02*
X99476190Y-180166666D01*
X99523809Y-180309523D01*
X99619047Y-180404761D01*
X99761904Y-180452380D01*
X99857142Y-180452380D01*
X98523809Y-180452380D02*
X99000000Y-180452380D01*
X99000000Y-179452380D01*
X97619047Y-180357142D02*
X97666666Y-180404761D01*
X97809523Y-180452380D01*
X97904761Y-180452380D01*
X98047619Y-180404761D01*
X98142857Y-180309523D01*
X98190476Y-180214285D01*
X98238095Y-180023809D01*
X98238095Y-179880952D01*
X98190476Y-179690476D01*
X98142857Y-179595238D01*
X98047619Y-179500000D01*
X97904761Y-179452380D01*
X97809523Y-179452380D01*
X97666666Y-179500000D01*
X97619047Y-179547619D01*
X96904761Y-179452380D02*
X96904761Y-180166666D01*
X96952380Y-180309523D01*
X97047619Y-180404761D01*
X97190476Y-180452380D01*
X97285714Y-180452380D01*
X95952380Y-180452380D02*
X96428571Y-180452380D01*
X96428571Y-179452380D01*
X95047619Y-180357142D02*
X95095238Y-180404761D01*
X95238095Y-180452380D01*
X95333333Y-180452380D01*
X95476190Y-180404761D01*
X95571428Y-180309523D01*
X95619047Y-180214285D01*
X95666666Y-180023809D01*
X95666666Y-179880952D01*
X95619047Y-179690476D01*
X95571428Y-179595238D01*
X95476190Y-179500000D01*
X95333333Y-179452380D01*
X95238095Y-179452380D01*
X95095238Y-179500000D01*
X95047619Y-179547619D01*
M02*
