G04 #@! TF.GenerationSoftware,KiCad,Pcbnew,5.1.5-52549c5~84~ubuntu18.04.1*
G04 #@! TF.CreationDate,2020-07-05T07:16:28-04:00*
G04 #@! TF.ProjectId,Panel,50616e65-6c2e-46b6-9963-61645f706362,rev?*
G04 #@! TF.SameCoordinates,Original*
G04 #@! TF.FileFunction,Copper,L1,Top*
G04 #@! TF.FilePolarity,Positive*
%FSLAX46Y46*%
G04 Gerber Fmt 4.6, Leading zero omitted, Abs format (unit mm)*
G04 Created by KiCad (PCBNEW 5.1.5-52549c5~84~ubuntu18.04.1) date 2020-07-05 07:16:28*
%MOMM*%
%LPD*%
G04 APERTURE LIST*
%ADD10C,14.000000*%
%ADD11C,4.000000*%
%ADD12C,9.000000*%
%ADD13C,0.254000*%
G04 APERTURE END LIST*
D10*
X135000000Y-114000000D03*
X110000000Y-80000000D03*
X135000000Y-49000000D03*
X110000000Y-15000000D03*
D11*
X147000000Y-187000000D03*
X53000000Y-187000000D03*
X147000000Y7000000D03*
X53000000Y7000000D03*
D12*
X90000000Y-114000000D03*
X90000000Y-49000000D03*
X65000000Y-80000000D03*
X65000000Y-15000000D03*
D10*
X140000000Y-166000000D03*
X120000000Y-166000000D03*
X100000000Y-166000000D03*
X80000000Y-166000000D03*
X60000000Y-166000000D03*
X140000000Y-144000000D03*
X120000000Y-144000000D03*
X100000000Y-144000000D03*
X80000000Y-144000000D03*
X60000000Y-144000000D03*
D13*
G36*
X51548228Y9214258D02*
G01*
X51332106Y8847499D01*
X53000000Y7179605D01*
X54667894Y8847499D01*
X54451772Y9214258D01*
X54211512Y9340000D01*
X145783476Y9340000D01*
X145548228Y9214258D01*
X145332106Y8847499D01*
X147000000Y7179605D01*
X148667894Y8847499D01*
X148451772Y9214258D01*
X148211512Y9340000D01*
X149340001Y9340000D01*
X149340001Y8216522D01*
X149214258Y8451772D01*
X148847499Y8667894D01*
X147179605Y7000000D01*
X148847499Y5332106D01*
X149214258Y5548228D01*
X149340001Y5788490D01*
X149340000Y-185783476D01*
X149214258Y-185548228D01*
X148847499Y-185332106D01*
X147179605Y-187000000D01*
X148847499Y-188667894D01*
X149214258Y-188451772D01*
X149340000Y-188211512D01*
X149340000Y-189340000D01*
X148216524Y-189340000D01*
X148451772Y-189214258D01*
X148667894Y-188847499D01*
X147000000Y-187179605D01*
X145332106Y-188847499D01*
X145548228Y-189214258D01*
X145788488Y-189340000D01*
X54216524Y-189340000D01*
X54451772Y-189214258D01*
X54667894Y-188847499D01*
X53000000Y-187179605D01*
X51332106Y-188847499D01*
X51548228Y-189214258D01*
X51788488Y-189340000D01*
X50660000Y-189340000D01*
X50660000Y-188216524D01*
X50785742Y-188451772D01*
X51152501Y-188667894D01*
X52820395Y-187000000D01*
X53179605Y-187000000D01*
X54847499Y-188667894D01*
X55214258Y-188451772D01*
X55454938Y-187991895D01*
X55601275Y-187493902D01*
X55643509Y-187023071D01*
X144352352Y-187023071D01*
X144407727Y-187539159D01*
X144562721Y-188034526D01*
X144785742Y-188451772D01*
X145152501Y-188667894D01*
X146820395Y-187000000D01*
X145152501Y-185332106D01*
X144785742Y-185548228D01*
X144545062Y-186008105D01*
X144398725Y-186506098D01*
X144352352Y-187023071D01*
X55643509Y-187023071D01*
X55647648Y-186976929D01*
X55592273Y-186460841D01*
X55437279Y-185965474D01*
X55214258Y-185548228D01*
X54847499Y-185332106D01*
X53179605Y-187000000D01*
X52820395Y-187000000D01*
X51152501Y-185332106D01*
X50785742Y-185548228D01*
X50660000Y-185788488D01*
X50660000Y-185152501D01*
X51332106Y-185152501D01*
X53000000Y-186820395D01*
X54667894Y-185152501D01*
X145332106Y-185152501D01*
X147000000Y-186820395D01*
X148667894Y-185152501D01*
X148451772Y-184785742D01*
X147991895Y-184545062D01*
X147493902Y-184398725D01*
X146976929Y-184352352D01*
X146460841Y-184407727D01*
X145965474Y-184562721D01*
X145548228Y-184785742D01*
X145332106Y-185152501D01*
X54667894Y-185152501D01*
X54451772Y-184785742D01*
X53991895Y-184545062D01*
X53493902Y-184398725D01*
X52976929Y-184352352D01*
X52460841Y-184407727D01*
X51965474Y-184562721D01*
X51548228Y-184785742D01*
X51332106Y-185152501D01*
X50660000Y-185152501D01*
X50660000Y-171401674D01*
X54777932Y-171401674D01*
X55593908Y-172280530D01*
X56903840Y-173019437D01*
X58332756Y-173488591D01*
X59825743Y-173669963D01*
X61325428Y-173556583D01*
X62774176Y-173152807D01*
X64116314Y-172474153D01*
X64406092Y-172280530D01*
X65222068Y-171401674D01*
X74777932Y-171401674D01*
X75593908Y-172280530D01*
X76903840Y-173019437D01*
X78332756Y-173488591D01*
X79825743Y-173669963D01*
X81325428Y-173556583D01*
X82774176Y-173152807D01*
X84116314Y-172474153D01*
X84406092Y-172280530D01*
X85222068Y-171401674D01*
X94777932Y-171401674D01*
X95593908Y-172280530D01*
X96903840Y-173019437D01*
X98332756Y-173488591D01*
X99825743Y-173669963D01*
X101325428Y-173556583D01*
X102774176Y-173152807D01*
X104116314Y-172474153D01*
X104406092Y-172280530D01*
X105222068Y-171401674D01*
X114777932Y-171401674D01*
X115593908Y-172280530D01*
X116903840Y-173019437D01*
X118332756Y-173488591D01*
X119825743Y-173669963D01*
X121325428Y-173556583D01*
X122774176Y-173152807D01*
X124116314Y-172474153D01*
X124406092Y-172280530D01*
X125222068Y-171401674D01*
X134777932Y-171401674D01*
X135593908Y-172280530D01*
X136903840Y-173019437D01*
X138332756Y-173488591D01*
X139825743Y-173669963D01*
X141325428Y-173556583D01*
X142774176Y-173152807D01*
X144116314Y-172474153D01*
X144406092Y-172280530D01*
X145222068Y-171401674D01*
X140000000Y-166179605D01*
X134777932Y-171401674D01*
X125222068Y-171401674D01*
X120000000Y-166179605D01*
X114777932Y-171401674D01*
X105222068Y-171401674D01*
X100000000Y-166179605D01*
X94777932Y-171401674D01*
X85222068Y-171401674D01*
X80000000Y-166179605D01*
X74777932Y-171401674D01*
X65222068Y-171401674D01*
X60000000Y-166179605D01*
X54777932Y-171401674D01*
X50660000Y-171401674D01*
X50660000Y-165825743D01*
X52330037Y-165825743D01*
X52443417Y-167325428D01*
X52847193Y-168774176D01*
X53525847Y-170116314D01*
X53719470Y-170406092D01*
X54598326Y-171222068D01*
X59820395Y-166000000D01*
X60179605Y-166000000D01*
X65401674Y-171222068D01*
X66280530Y-170406092D01*
X67019437Y-169096160D01*
X67488591Y-167667244D01*
X67669963Y-166174257D01*
X67643615Y-165825743D01*
X72330037Y-165825743D01*
X72443417Y-167325428D01*
X72847193Y-168774176D01*
X73525847Y-170116314D01*
X73719470Y-170406092D01*
X74598326Y-171222068D01*
X79820395Y-166000000D01*
X80179605Y-166000000D01*
X85401674Y-171222068D01*
X86280530Y-170406092D01*
X87019437Y-169096160D01*
X87488591Y-167667244D01*
X87669963Y-166174257D01*
X87643615Y-165825743D01*
X92330037Y-165825743D01*
X92443417Y-167325428D01*
X92847193Y-168774176D01*
X93525847Y-170116314D01*
X93719470Y-170406092D01*
X94598326Y-171222068D01*
X99820395Y-166000000D01*
X100179605Y-166000000D01*
X105401674Y-171222068D01*
X106280530Y-170406092D01*
X107019437Y-169096160D01*
X107488591Y-167667244D01*
X107669963Y-166174257D01*
X107643615Y-165825743D01*
X112330037Y-165825743D01*
X112443417Y-167325428D01*
X112847193Y-168774176D01*
X113525847Y-170116314D01*
X113719470Y-170406092D01*
X114598326Y-171222068D01*
X119820395Y-166000000D01*
X120179605Y-166000000D01*
X125401674Y-171222068D01*
X126280530Y-170406092D01*
X127019437Y-169096160D01*
X127488591Y-167667244D01*
X127669963Y-166174257D01*
X127643615Y-165825743D01*
X132330037Y-165825743D01*
X132443417Y-167325428D01*
X132847193Y-168774176D01*
X133525847Y-170116314D01*
X133719470Y-170406092D01*
X134598326Y-171222068D01*
X139820395Y-166000000D01*
X140179605Y-166000000D01*
X145401674Y-171222068D01*
X146280530Y-170406092D01*
X147019437Y-169096160D01*
X147488591Y-167667244D01*
X147669963Y-166174257D01*
X147556583Y-164674572D01*
X147152807Y-163225824D01*
X146474153Y-161883686D01*
X146280530Y-161593908D01*
X145401674Y-160777932D01*
X140179605Y-166000000D01*
X139820395Y-166000000D01*
X134598326Y-160777932D01*
X133719470Y-161593908D01*
X132980563Y-162903840D01*
X132511409Y-164332756D01*
X132330037Y-165825743D01*
X127643615Y-165825743D01*
X127556583Y-164674572D01*
X127152807Y-163225824D01*
X126474153Y-161883686D01*
X126280530Y-161593908D01*
X125401674Y-160777932D01*
X120179605Y-166000000D01*
X119820395Y-166000000D01*
X114598326Y-160777932D01*
X113719470Y-161593908D01*
X112980563Y-162903840D01*
X112511409Y-164332756D01*
X112330037Y-165825743D01*
X107643615Y-165825743D01*
X107556583Y-164674572D01*
X107152807Y-163225824D01*
X106474153Y-161883686D01*
X106280530Y-161593908D01*
X105401674Y-160777932D01*
X100179605Y-166000000D01*
X99820395Y-166000000D01*
X94598326Y-160777932D01*
X93719470Y-161593908D01*
X92980563Y-162903840D01*
X92511409Y-164332756D01*
X92330037Y-165825743D01*
X87643615Y-165825743D01*
X87556583Y-164674572D01*
X87152807Y-163225824D01*
X86474153Y-161883686D01*
X86280530Y-161593908D01*
X85401674Y-160777932D01*
X80179605Y-166000000D01*
X79820395Y-166000000D01*
X74598326Y-160777932D01*
X73719470Y-161593908D01*
X72980563Y-162903840D01*
X72511409Y-164332756D01*
X72330037Y-165825743D01*
X67643615Y-165825743D01*
X67556583Y-164674572D01*
X67152807Y-163225824D01*
X66474153Y-161883686D01*
X66280530Y-161593908D01*
X65401674Y-160777932D01*
X60179605Y-166000000D01*
X59820395Y-166000000D01*
X54598326Y-160777932D01*
X53719470Y-161593908D01*
X52980563Y-162903840D01*
X52511409Y-164332756D01*
X52330037Y-165825743D01*
X50660000Y-165825743D01*
X50660000Y-160598326D01*
X54777932Y-160598326D01*
X60000000Y-165820395D01*
X65222068Y-160598326D01*
X74777932Y-160598326D01*
X80000000Y-165820395D01*
X85222068Y-160598326D01*
X94777932Y-160598326D01*
X100000000Y-165820395D01*
X105222068Y-160598326D01*
X114777932Y-160598326D01*
X120000000Y-165820395D01*
X125222068Y-160598326D01*
X134777932Y-160598326D01*
X140000000Y-165820395D01*
X145222068Y-160598326D01*
X144406092Y-159719470D01*
X143096160Y-158980563D01*
X141667244Y-158511409D01*
X140174257Y-158330037D01*
X138674572Y-158443417D01*
X137225824Y-158847193D01*
X135883686Y-159525847D01*
X135593908Y-159719470D01*
X134777932Y-160598326D01*
X125222068Y-160598326D01*
X124406092Y-159719470D01*
X123096160Y-158980563D01*
X121667244Y-158511409D01*
X120174257Y-158330037D01*
X118674572Y-158443417D01*
X117225824Y-158847193D01*
X115883686Y-159525847D01*
X115593908Y-159719470D01*
X114777932Y-160598326D01*
X105222068Y-160598326D01*
X104406092Y-159719470D01*
X103096160Y-158980563D01*
X101667244Y-158511409D01*
X100174257Y-158330037D01*
X98674572Y-158443417D01*
X97225824Y-158847193D01*
X95883686Y-159525847D01*
X95593908Y-159719470D01*
X94777932Y-160598326D01*
X85222068Y-160598326D01*
X84406092Y-159719470D01*
X83096160Y-158980563D01*
X81667244Y-158511409D01*
X80174257Y-158330037D01*
X78674572Y-158443417D01*
X77225824Y-158847193D01*
X75883686Y-159525847D01*
X75593908Y-159719470D01*
X74777932Y-160598326D01*
X65222068Y-160598326D01*
X64406092Y-159719470D01*
X63096160Y-158980563D01*
X61667244Y-158511409D01*
X60174257Y-158330037D01*
X58674572Y-158443417D01*
X57225824Y-158847193D01*
X55883686Y-159525847D01*
X55593908Y-159719470D01*
X54777932Y-160598326D01*
X50660000Y-160598326D01*
X50660000Y-149401674D01*
X54777932Y-149401674D01*
X55593908Y-150280530D01*
X56903840Y-151019437D01*
X58332756Y-151488591D01*
X59825743Y-151669963D01*
X61325428Y-151556583D01*
X62774176Y-151152807D01*
X64116314Y-150474153D01*
X64406092Y-150280530D01*
X65222068Y-149401674D01*
X74777932Y-149401674D01*
X75593908Y-150280530D01*
X76903840Y-151019437D01*
X78332756Y-151488591D01*
X79825743Y-151669963D01*
X81325428Y-151556583D01*
X82774176Y-151152807D01*
X84116314Y-150474153D01*
X84406092Y-150280530D01*
X85222068Y-149401674D01*
X94777932Y-149401674D01*
X95593908Y-150280530D01*
X96903840Y-151019437D01*
X98332756Y-151488591D01*
X99825743Y-151669963D01*
X101325428Y-151556583D01*
X102774176Y-151152807D01*
X104116314Y-150474153D01*
X104406092Y-150280530D01*
X105222068Y-149401674D01*
X114777932Y-149401674D01*
X115593908Y-150280530D01*
X116903840Y-151019437D01*
X118332756Y-151488591D01*
X119825743Y-151669963D01*
X121325428Y-151556583D01*
X122774176Y-151152807D01*
X124116314Y-150474153D01*
X124406092Y-150280530D01*
X125222068Y-149401674D01*
X134777932Y-149401674D01*
X135593908Y-150280530D01*
X136903840Y-151019437D01*
X138332756Y-151488591D01*
X139825743Y-151669963D01*
X141325428Y-151556583D01*
X142774176Y-151152807D01*
X144116314Y-150474153D01*
X144406092Y-150280530D01*
X145222068Y-149401674D01*
X140000000Y-144179605D01*
X134777932Y-149401674D01*
X125222068Y-149401674D01*
X120000000Y-144179605D01*
X114777932Y-149401674D01*
X105222068Y-149401674D01*
X100000000Y-144179605D01*
X94777932Y-149401674D01*
X85222068Y-149401674D01*
X80000000Y-144179605D01*
X74777932Y-149401674D01*
X65222068Y-149401674D01*
X60000000Y-144179605D01*
X54777932Y-149401674D01*
X50660000Y-149401674D01*
X50660000Y-143825743D01*
X52330037Y-143825743D01*
X52443417Y-145325428D01*
X52847193Y-146774176D01*
X53525847Y-148116314D01*
X53719470Y-148406092D01*
X54598326Y-149222068D01*
X59820395Y-144000000D01*
X60179605Y-144000000D01*
X65401674Y-149222068D01*
X66280530Y-148406092D01*
X67019437Y-147096160D01*
X67488591Y-145667244D01*
X67669963Y-144174257D01*
X67643615Y-143825743D01*
X72330037Y-143825743D01*
X72443417Y-145325428D01*
X72847193Y-146774176D01*
X73525847Y-148116314D01*
X73719470Y-148406092D01*
X74598326Y-149222068D01*
X79820395Y-144000000D01*
X80179605Y-144000000D01*
X85401674Y-149222068D01*
X86280530Y-148406092D01*
X87019437Y-147096160D01*
X87488591Y-145667244D01*
X87669963Y-144174257D01*
X87643615Y-143825743D01*
X92330037Y-143825743D01*
X92443417Y-145325428D01*
X92847193Y-146774176D01*
X93525847Y-148116314D01*
X93719470Y-148406092D01*
X94598326Y-149222068D01*
X99820395Y-144000000D01*
X100179605Y-144000000D01*
X105401674Y-149222068D01*
X106280530Y-148406092D01*
X107019437Y-147096160D01*
X107488591Y-145667244D01*
X107669963Y-144174257D01*
X107643615Y-143825743D01*
X112330037Y-143825743D01*
X112443417Y-145325428D01*
X112847193Y-146774176D01*
X113525847Y-148116314D01*
X113719470Y-148406092D01*
X114598326Y-149222068D01*
X119820395Y-144000000D01*
X120179605Y-144000000D01*
X125401674Y-149222068D01*
X126280530Y-148406092D01*
X127019437Y-147096160D01*
X127488591Y-145667244D01*
X127669963Y-144174257D01*
X127643615Y-143825743D01*
X132330037Y-143825743D01*
X132443417Y-145325428D01*
X132847193Y-146774176D01*
X133525847Y-148116314D01*
X133719470Y-148406092D01*
X134598326Y-149222068D01*
X139820395Y-144000000D01*
X140179605Y-144000000D01*
X145401674Y-149222068D01*
X146280530Y-148406092D01*
X147019437Y-147096160D01*
X147488591Y-145667244D01*
X147669963Y-144174257D01*
X147556583Y-142674572D01*
X147152807Y-141225824D01*
X146474153Y-139883686D01*
X146280530Y-139593908D01*
X145401674Y-138777932D01*
X140179605Y-144000000D01*
X139820395Y-144000000D01*
X134598326Y-138777932D01*
X133719470Y-139593908D01*
X132980563Y-140903840D01*
X132511409Y-142332756D01*
X132330037Y-143825743D01*
X127643615Y-143825743D01*
X127556583Y-142674572D01*
X127152807Y-141225824D01*
X126474153Y-139883686D01*
X126280530Y-139593908D01*
X125401674Y-138777932D01*
X120179605Y-144000000D01*
X119820395Y-144000000D01*
X114598326Y-138777932D01*
X113719470Y-139593908D01*
X112980563Y-140903840D01*
X112511409Y-142332756D01*
X112330037Y-143825743D01*
X107643615Y-143825743D01*
X107556583Y-142674572D01*
X107152807Y-141225824D01*
X106474153Y-139883686D01*
X106280530Y-139593908D01*
X105401674Y-138777932D01*
X100179605Y-144000000D01*
X99820395Y-144000000D01*
X94598326Y-138777932D01*
X93719470Y-139593908D01*
X92980563Y-140903840D01*
X92511409Y-142332756D01*
X92330037Y-143825743D01*
X87643615Y-143825743D01*
X87556583Y-142674572D01*
X87152807Y-141225824D01*
X86474153Y-139883686D01*
X86280530Y-139593908D01*
X85401674Y-138777932D01*
X80179605Y-144000000D01*
X79820395Y-144000000D01*
X74598326Y-138777932D01*
X73719470Y-139593908D01*
X72980563Y-140903840D01*
X72511409Y-142332756D01*
X72330037Y-143825743D01*
X67643615Y-143825743D01*
X67556583Y-142674572D01*
X67152807Y-141225824D01*
X66474153Y-139883686D01*
X66280530Y-139593908D01*
X65401674Y-138777932D01*
X60179605Y-144000000D01*
X59820395Y-144000000D01*
X54598326Y-138777932D01*
X53719470Y-139593908D01*
X52980563Y-140903840D01*
X52511409Y-142332756D01*
X52330037Y-143825743D01*
X50660000Y-143825743D01*
X50660000Y-138598326D01*
X54777932Y-138598326D01*
X60000000Y-143820395D01*
X65222068Y-138598326D01*
X74777932Y-138598326D01*
X80000000Y-143820395D01*
X85222068Y-138598326D01*
X94777932Y-138598326D01*
X100000000Y-143820395D01*
X105222068Y-138598326D01*
X114777932Y-138598326D01*
X120000000Y-143820395D01*
X125222068Y-138598326D01*
X134777932Y-138598326D01*
X140000000Y-143820395D01*
X145222068Y-138598326D01*
X144406092Y-137719470D01*
X143096160Y-136980563D01*
X141667244Y-136511409D01*
X140174257Y-136330037D01*
X138674572Y-136443417D01*
X137225824Y-136847193D01*
X135883686Y-137525847D01*
X135593908Y-137719470D01*
X134777932Y-138598326D01*
X125222068Y-138598326D01*
X124406092Y-137719470D01*
X123096160Y-136980563D01*
X121667244Y-136511409D01*
X120174257Y-136330037D01*
X118674572Y-136443417D01*
X117225824Y-136847193D01*
X115883686Y-137525847D01*
X115593908Y-137719470D01*
X114777932Y-138598326D01*
X105222068Y-138598326D01*
X104406092Y-137719470D01*
X103096160Y-136980563D01*
X101667244Y-136511409D01*
X100174257Y-136330037D01*
X98674572Y-136443417D01*
X97225824Y-136847193D01*
X95883686Y-137525847D01*
X95593908Y-137719470D01*
X94777932Y-138598326D01*
X85222068Y-138598326D01*
X84406092Y-137719470D01*
X83096160Y-136980563D01*
X81667244Y-136511409D01*
X80174257Y-136330037D01*
X78674572Y-136443417D01*
X77225824Y-136847193D01*
X75883686Y-137525847D01*
X75593908Y-137719470D01*
X74777932Y-138598326D01*
X65222068Y-138598326D01*
X64406092Y-137719470D01*
X63096160Y-136980563D01*
X61667244Y-136511409D01*
X60174257Y-136330037D01*
X58674572Y-136443417D01*
X57225824Y-136847193D01*
X55883686Y-137525847D01*
X55593908Y-137719470D01*
X54777932Y-138598326D01*
X50660000Y-138598326D01*
X50660000Y-119401674D01*
X129777932Y-119401674D01*
X130593908Y-120280530D01*
X131903840Y-121019437D01*
X133332756Y-121488591D01*
X134825743Y-121669963D01*
X136325428Y-121556583D01*
X137774176Y-121152807D01*
X139116314Y-120474153D01*
X139406092Y-120280530D01*
X140222068Y-119401674D01*
X135000000Y-114179605D01*
X129777932Y-119401674D01*
X50660000Y-119401674D01*
X50660000Y-117624971D01*
X86554634Y-117624971D01*
X87070783Y-118247788D01*
X87955768Y-118737630D01*
X88919314Y-119045407D01*
X89924389Y-119159293D01*
X90932370Y-119074910D01*
X91904520Y-118795501D01*
X92803481Y-118331803D01*
X92929217Y-118247788D01*
X93445366Y-117624971D01*
X90000000Y-114179605D01*
X86554634Y-117624971D01*
X50660000Y-117624971D01*
X50660000Y-113924389D01*
X84840707Y-113924389D01*
X84925090Y-114932370D01*
X85204499Y-115904520D01*
X85668197Y-116803481D01*
X85752212Y-116929217D01*
X86375029Y-117445366D01*
X89820395Y-114000000D01*
X90179605Y-114000000D01*
X93624971Y-117445366D01*
X94247788Y-116929217D01*
X94737630Y-116044232D01*
X95045407Y-115080686D01*
X95159293Y-114075611D01*
X95138376Y-113825743D01*
X127330037Y-113825743D01*
X127443417Y-115325428D01*
X127847193Y-116774176D01*
X128525847Y-118116314D01*
X128719470Y-118406092D01*
X129598326Y-119222068D01*
X134820395Y-114000000D01*
X135179605Y-114000000D01*
X140401674Y-119222068D01*
X141280530Y-118406092D01*
X142019437Y-117096160D01*
X142488591Y-115667244D01*
X142669963Y-114174257D01*
X142556583Y-112674572D01*
X142152807Y-111225824D01*
X141474153Y-109883686D01*
X141280530Y-109593908D01*
X140401674Y-108777932D01*
X135179605Y-114000000D01*
X134820395Y-114000000D01*
X129598326Y-108777932D01*
X128719470Y-109593908D01*
X127980563Y-110903840D01*
X127511409Y-112332756D01*
X127330037Y-113825743D01*
X95138376Y-113825743D01*
X95074910Y-113067630D01*
X94795501Y-112095480D01*
X94331803Y-111196519D01*
X94247788Y-111070783D01*
X93624971Y-110554634D01*
X90179605Y-114000000D01*
X89820395Y-114000000D01*
X86375029Y-110554634D01*
X85752212Y-111070783D01*
X85262370Y-111955768D01*
X84954593Y-112919314D01*
X84840707Y-113924389D01*
X50660000Y-113924389D01*
X50660000Y-110375029D01*
X86554634Y-110375029D01*
X90000000Y-113820395D01*
X93445366Y-110375029D01*
X92929217Y-109752212D01*
X92044232Y-109262370D01*
X91080686Y-108954593D01*
X90075611Y-108840707D01*
X89067630Y-108925090D01*
X88095480Y-109204499D01*
X87196519Y-109668197D01*
X87070783Y-109752212D01*
X86554634Y-110375029D01*
X50660000Y-110375029D01*
X50660000Y-108598326D01*
X129777932Y-108598326D01*
X135000000Y-113820395D01*
X140222068Y-108598326D01*
X139406092Y-107719470D01*
X138096160Y-106980563D01*
X136667244Y-106511409D01*
X135174257Y-106330037D01*
X133674572Y-106443417D01*
X132225824Y-106847193D01*
X130883686Y-107525847D01*
X130593908Y-107719470D01*
X129777932Y-108598326D01*
X50660000Y-108598326D01*
X50660000Y-89779872D01*
X53765000Y-89779872D01*
X53765000Y-90220128D01*
X53850890Y-90651925D01*
X54019369Y-91058669D01*
X54263962Y-91424729D01*
X54575271Y-91736038D01*
X54941331Y-91980631D01*
X55348075Y-92149110D01*
X55779872Y-92235000D01*
X56220128Y-92235000D01*
X56651925Y-92149110D01*
X57058669Y-91980631D01*
X57424729Y-91736038D01*
X57736038Y-91424729D01*
X57980631Y-91058669D01*
X58149110Y-90651925D01*
X58235000Y-90220128D01*
X58235000Y-89779872D01*
X141765000Y-89779872D01*
X141765000Y-90220128D01*
X141850890Y-90651925D01*
X142019369Y-91058669D01*
X142263962Y-91424729D01*
X142575271Y-91736038D01*
X142941331Y-91980631D01*
X143348075Y-92149110D01*
X143779872Y-92235000D01*
X144220128Y-92235000D01*
X144651925Y-92149110D01*
X145058669Y-91980631D01*
X145424729Y-91736038D01*
X145736038Y-91424729D01*
X145980631Y-91058669D01*
X146149110Y-90651925D01*
X146235000Y-90220128D01*
X146235000Y-89779872D01*
X146149110Y-89348075D01*
X145980631Y-88941331D01*
X145736038Y-88575271D01*
X145424729Y-88263962D01*
X145058669Y-88019369D01*
X144651925Y-87850890D01*
X144220128Y-87765000D01*
X143779872Y-87765000D01*
X143348075Y-87850890D01*
X142941331Y-88019369D01*
X142575271Y-88263962D01*
X142263962Y-88575271D01*
X142019369Y-88941331D01*
X141850890Y-89348075D01*
X141765000Y-89779872D01*
X58235000Y-89779872D01*
X58149110Y-89348075D01*
X57980631Y-88941331D01*
X57736038Y-88575271D01*
X57424729Y-88263962D01*
X57058669Y-88019369D01*
X56651925Y-87850890D01*
X56220128Y-87765000D01*
X55779872Y-87765000D01*
X55348075Y-87850890D01*
X54941331Y-88019369D01*
X54575271Y-88263962D01*
X54263962Y-88575271D01*
X54019369Y-88941331D01*
X53850890Y-89348075D01*
X53765000Y-89779872D01*
X50660000Y-89779872D01*
X50660000Y-85401674D01*
X104777932Y-85401674D01*
X105593908Y-86280530D01*
X106903840Y-87019437D01*
X108332756Y-87488591D01*
X109825743Y-87669963D01*
X111325428Y-87556583D01*
X112774176Y-87152807D01*
X114116314Y-86474153D01*
X114406092Y-86280530D01*
X115222068Y-85401674D01*
X110000000Y-80179605D01*
X104777932Y-85401674D01*
X50660000Y-85401674D01*
X50660000Y-83624971D01*
X61554634Y-83624971D01*
X62070783Y-84247788D01*
X62955768Y-84737630D01*
X63919314Y-85045407D01*
X64924389Y-85159293D01*
X65932370Y-85074910D01*
X66904520Y-84795501D01*
X67803481Y-84331803D01*
X67929217Y-84247788D01*
X68445366Y-83624971D01*
X65000000Y-80179605D01*
X61554634Y-83624971D01*
X50660000Y-83624971D01*
X50660000Y-79924389D01*
X59840707Y-79924389D01*
X59925090Y-80932370D01*
X60204499Y-81904520D01*
X60668197Y-82803481D01*
X60752212Y-82929217D01*
X61375029Y-83445366D01*
X64820395Y-80000000D01*
X65179605Y-80000000D01*
X68624971Y-83445366D01*
X69247788Y-82929217D01*
X69737630Y-82044232D01*
X70045407Y-81080686D01*
X70159293Y-80075611D01*
X70138376Y-79825743D01*
X102330037Y-79825743D01*
X102443417Y-81325428D01*
X102847193Y-82774176D01*
X103525847Y-84116314D01*
X103719470Y-84406092D01*
X104598326Y-85222068D01*
X109820395Y-80000000D01*
X110179605Y-80000000D01*
X115401674Y-85222068D01*
X116280530Y-84406092D01*
X117019437Y-83096160D01*
X117488591Y-81667244D01*
X117669963Y-80174257D01*
X117556583Y-78674572D01*
X117152807Y-77225824D01*
X116474153Y-75883686D01*
X116280530Y-75593908D01*
X115401674Y-74777932D01*
X110179605Y-80000000D01*
X109820395Y-80000000D01*
X104598326Y-74777932D01*
X103719470Y-75593908D01*
X102980563Y-76903840D01*
X102511409Y-78332756D01*
X102330037Y-79825743D01*
X70138376Y-79825743D01*
X70074910Y-79067630D01*
X69795501Y-78095480D01*
X69331803Y-77196519D01*
X69247788Y-77070783D01*
X68624971Y-76554634D01*
X65179605Y-80000000D01*
X64820395Y-80000000D01*
X61375029Y-76554634D01*
X60752212Y-77070783D01*
X60262370Y-77955768D01*
X59954593Y-78919314D01*
X59840707Y-79924389D01*
X50660000Y-79924389D01*
X50660000Y-76375029D01*
X61554634Y-76375029D01*
X65000000Y-79820395D01*
X68445366Y-76375029D01*
X67929217Y-75752212D01*
X67044232Y-75262370D01*
X66080686Y-74954593D01*
X65075611Y-74840707D01*
X64067630Y-74925090D01*
X63095480Y-75204499D01*
X62196519Y-75668197D01*
X62070783Y-75752212D01*
X61554634Y-76375029D01*
X50660000Y-76375029D01*
X50660000Y-74598326D01*
X104777932Y-74598326D01*
X110000000Y-79820395D01*
X115222068Y-74598326D01*
X114406092Y-73719470D01*
X113096160Y-72980563D01*
X111667244Y-72511409D01*
X110174257Y-72330037D01*
X108674572Y-72443417D01*
X107225824Y-72847193D01*
X105883686Y-73525847D01*
X105593908Y-73719470D01*
X104777932Y-74598326D01*
X50660000Y-74598326D01*
X50660000Y-54401674D01*
X129777932Y-54401674D01*
X130593908Y-55280530D01*
X131903840Y-56019437D01*
X133332756Y-56488591D01*
X134825743Y-56669963D01*
X136325428Y-56556583D01*
X137774176Y-56152807D01*
X139116314Y-55474153D01*
X139406092Y-55280530D01*
X140222068Y-54401674D01*
X135000000Y-49179605D01*
X129777932Y-54401674D01*
X50660000Y-54401674D01*
X50660000Y-52624971D01*
X86554634Y-52624971D01*
X87070783Y-53247788D01*
X87955768Y-53737630D01*
X88919314Y-54045407D01*
X89924389Y-54159293D01*
X90932370Y-54074910D01*
X91904520Y-53795501D01*
X92803481Y-53331803D01*
X92929217Y-53247788D01*
X93445366Y-52624971D01*
X90000000Y-49179605D01*
X86554634Y-52624971D01*
X50660000Y-52624971D01*
X50660000Y-48924389D01*
X84840707Y-48924389D01*
X84925090Y-49932370D01*
X85204499Y-50904520D01*
X85668197Y-51803481D01*
X85752212Y-51929217D01*
X86375029Y-52445366D01*
X89820395Y-49000000D01*
X90179605Y-49000000D01*
X93624971Y-52445366D01*
X94247788Y-51929217D01*
X94737630Y-51044232D01*
X95045407Y-50080686D01*
X95159293Y-49075611D01*
X95138376Y-48825743D01*
X127330037Y-48825743D01*
X127443417Y-50325428D01*
X127847193Y-51774176D01*
X128525847Y-53116314D01*
X128719470Y-53406092D01*
X129598326Y-54222068D01*
X134820395Y-49000000D01*
X135179605Y-49000000D01*
X140401674Y-54222068D01*
X141280530Y-53406092D01*
X142019437Y-52096160D01*
X142488591Y-50667244D01*
X142669963Y-49174257D01*
X142556583Y-47674572D01*
X142152807Y-46225824D01*
X141474153Y-44883686D01*
X141280530Y-44593908D01*
X140401674Y-43777932D01*
X135179605Y-49000000D01*
X134820395Y-49000000D01*
X129598326Y-43777932D01*
X128719470Y-44593908D01*
X127980563Y-45903840D01*
X127511409Y-47332756D01*
X127330037Y-48825743D01*
X95138376Y-48825743D01*
X95074910Y-48067630D01*
X94795501Y-47095480D01*
X94331803Y-46196519D01*
X94247788Y-46070783D01*
X93624971Y-45554634D01*
X90179605Y-49000000D01*
X89820395Y-49000000D01*
X86375029Y-45554634D01*
X85752212Y-46070783D01*
X85262370Y-46955768D01*
X84954593Y-47919314D01*
X84840707Y-48924389D01*
X50660000Y-48924389D01*
X50660000Y-45375029D01*
X86554634Y-45375029D01*
X90000000Y-48820395D01*
X93445366Y-45375029D01*
X92929217Y-44752212D01*
X92044232Y-44262370D01*
X91080686Y-43954593D01*
X90075611Y-43840707D01*
X89067630Y-43925090D01*
X88095480Y-44204499D01*
X87196519Y-44668197D01*
X87070783Y-44752212D01*
X86554634Y-45375029D01*
X50660000Y-45375029D01*
X50660000Y-43598326D01*
X129777932Y-43598326D01*
X135000000Y-48820395D01*
X140222068Y-43598326D01*
X139406092Y-42719470D01*
X138096160Y-41980563D01*
X136667244Y-41511409D01*
X135174257Y-41330037D01*
X133674572Y-41443417D01*
X132225824Y-41847193D01*
X130883686Y-42525847D01*
X130593908Y-42719470D01*
X129777932Y-43598326D01*
X50660000Y-43598326D01*
X50660000Y-20401674D01*
X104777932Y-20401674D01*
X105593908Y-21280530D01*
X106903840Y-22019437D01*
X108332756Y-22488591D01*
X109825743Y-22669963D01*
X111325428Y-22556583D01*
X112774176Y-22152807D01*
X114116314Y-21474153D01*
X114406092Y-21280530D01*
X115222068Y-20401674D01*
X110000000Y-15179605D01*
X104777932Y-20401674D01*
X50660000Y-20401674D01*
X50660000Y-18624971D01*
X61554634Y-18624971D01*
X62070783Y-19247788D01*
X62955768Y-19737630D01*
X63919314Y-20045407D01*
X64924389Y-20159293D01*
X65932370Y-20074910D01*
X66904520Y-19795501D01*
X67803481Y-19331803D01*
X67929217Y-19247788D01*
X68445366Y-18624971D01*
X65000000Y-15179605D01*
X61554634Y-18624971D01*
X50660000Y-18624971D01*
X50660000Y-14924389D01*
X59840707Y-14924389D01*
X59925090Y-15932370D01*
X60204499Y-16904520D01*
X60668197Y-17803481D01*
X60752212Y-17929217D01*
X61375029Y-18445366D01*
X64820395Y-15000000D01*
X65179605Y-15000000D01*
X68624971Y-18445366D01*
X69247788Y-17929217D01*
X69737630Y-17044232D01*
X70045407Y-16080686D01*
X70159293Y-15075611D01*
X70138376Y-14825743D01*
X102330037Y-14825743D01*
X102443417Y-16325428D01*
X102847193Y-17774176D01*
X103525847Y-19116314D01*
X103719470Y-19406092D01*
X104598326Y-20222068D01*
X109820395Y-15000000D01*
X110179605Y-15000000D01*
X115401674Y-20222068D01*
X116280530Y-19406092D01*
X117019437Y-18096160D01*
X117488591Y-16667244D01*
X117669963Y-15174257D01*
X117556583Y-13674572D01*
X117152807Y-12225824D01*
X116474153Y-10883686D01*
X116280530Y-10593908D01*
X115401674Y-9777932D01*
X110179605Y-15000000D01*
X109820395Y-15000000D01*
X104598326Y-9777932D01*
X103719470Y-10593908D01*
X102980563Y-11903840D01*
X102511409Y-13332756D01*
X102330037Y-14825743D01*
X70138376Y-14825743D01*
X70074910Y-14067630D01*
X69795501Y-13095480D01*
X69331803Y-12196519D01*
X69247788Y-12070783D01*
X68624971Y-11554634D01*
X65179605Y-15000000D01*
X64820395Y-15000000D01*
X61375029Y-11554634D01*
X60752212Y-12070783D01*
X60262370Y-12955768D01*
X59954593Y-13919314D01*
X59840707Y-14924389D01*
X50660000Y-14924389D01*
X50660000Y-11375029D01*
X61554634Y-11375029D01*
X65000000Y-14820395D01*
X68445366Y-11375029D01*
X67929217Y-10752212D01*
X67044232Y-10262370D01*
X66080686Y-9954593D01*
X65075611Y-9840707D01*
X64067630Y-9925090D01*
X63095480Y-10204499D01*
X62196519Y-10668197D01*
X62070783Y-10752212D01*
X61554634Y-11375029D01*
X50660000Y-11375029D01*
X50660000Y-9598326D01*
X104777932Y-9598326D01*
X110000000Y-14820395D01*
X115222068Y-9598326D01*
X114406092Y-8719470D01*
X113096160Y-7980563D01*
X111667244Y-7511409D01*
X110174257Y-7330037D01*
X108674572Y-7443417D01*
X107225824Y-7847193D01*
X105883686Y-8525847D01*
X105593908Y-8719470D01*
X104777932Y-9598326D01*
X50660000Y-9598326D01*
X50660000Y-4779872D01*
X53765000Y-4779872D01*
X53765000Y-5220128D01*
X53850890Y-5651925D01*
X54019369Y-6058669D01*
X54263962Y-6424729D01*
X54575271Y-6736038D01*
X54941331Y-6980631D01*
X55348075Y-7149110D01*
X55779872Y-7235000D01*
X56220128Y-7235000D01*
X56651925Y-7149110D01*
X57058669Y-6980631D01*
X57424729Y-6736038D01*
X57736038Y-6424729D01*
X57980631Y-6058669D01*
X58149110Y-5651925D01*
X58235000Y-5220128D01*
X58235000Y-4779872D01*
X141765000Y-4779872D01*
X141765000Y-5220128D01*
X141850890Y-5651925D01*
X142019369Y-6058669D01*
X142263962Y-6424729D01*
X142575271Y-6736038D01*
X142941331Y-6980631D01*
X143348075Y-7149110D01*
X143779872Y-7235000D01*
X144220128Y-7235000D01*
X144651925Y-7149110D01*
X145058669Y-6980631D01*
X145424729Y-6736038D01*
X145736038Y-6424729D01*
X145980631Y-6058669D01*
X146149110Y-5651925D01*
X146235000Y-5220128D01*
X146235000Y-4779872D01*
X146149110Y-4348075D01*
X145980631Y-3941331D01*
X145736038Y-3575271D01*
X145424729Y-3263962D01*
X145058669Y-3019369D01*
X144651925Y-2850890D01*
X144220128Y-2765000D01*
X143779872Y-2765000D01*
X143348075Y-2850890D01*
X142941331Y-3019369D01*
X142575271Y-3263962D01*
X142263962Y-3575271D01*
X142019369Y-3941331D01*
X141850890Y-4348075D01*
X141765000Y-4779872D01*
X58235000Y-4779872D01*
X58149110Y-4348075D01*
X57980631Y-3941331D01*
X57736038Y-3575271D01*
X57424729Y-3263962D01*
X57058669Y-3019369D01*
X56651925Y-2850890D01*
X56220128Y-2765000D01*
X55779872Y-2765000D01*
X55348075Y-2850890D01*
X54941331Y-3019369D01*
X54575271Y-3263962D01*
X54263962Y-3575271D01*
X54019369Y-3941331D01*
X53850890Y-4348075D01*
X53765000Y-4779872D01*
X50660000Y-4779872D01*
X50660000Y5152501D01*
X51332106Y5152501D01*
X51548228Y4785742D01*
X52008105Y4545062D01*
X52506098Y4398725D01*
X53023071Y4352352D01*
X53539159Y4407727D01*
X54034526Y4562721D01*
X54451772Y4785742D01*
X54667894Y5152501D01*
X145332106Y5152501D01*
X145548228Y4785742D01*
X146008105Y4545062D01*
X146506098Y4398725D01*
X147023071Y4352352D01*
X147539159Y4407727D01*
X148034526Y4562721D01*
X148451772Y4785742D01*
X148667894Y5152501D01*
X147000000Y6820395D01*
X145332106Y5152501D01*
X54667894Y5152501D01*
X53000000Y6820395D01*
X51332106Y5152501D01*
X50660000Y5152501D01*
X50660000Y5783476D01*
X50785742Y5548228D01*
X51152501Y5332106D01*
X52820395Y7000000D01*
X53179605Y7000000D01*
X54847499Y5332106D01*
X55214258Y5548228D01*
X55454938Y6008105D01*
X55601275Y6506098D01*
X55643509Y6976929D01*
X144352352Y6976929D01*
X144407727Y6460841D01*
X144562721Y5965474D01*
X144785742Y5548228D01*
X145152501Y5332106D01*
X146820395Y7000000D01*
X145152501Y8667894D01*
X144785742Y8451772D01*
X144545062Y7991895D01*
X144398725Y7493902D01*
X144352352Y6976929D01*
X55643509Y6976929D01*
X55647648Y7023071D01*
X55592273Y7539159D01*
X55437279Y8034526D01*
X55214258Y8451772D01*
X54847499Y8667894D01*
X53179605Y7000000D01*
X52820395Y7000000D01*
X51152501Y8667894D01*
X50785742Y8451772D01*
X50660000Y8211512D01*
X50660000Y9340000D01*
X51783476Y9340000D01*
X51548228Y9214258D01*
G37*
X51548228Y9214258D02*
X51332106Y8847499D01*
X53000000Y7179605D01*
X54667894Y8847499D01*
X54451772Y9214258D01*
X54211512Y9340000D01*
X145783476Y9340000D01*
X145548228Y9214258D01*
X145332106Y8847499D01*
X147000000Y7179605D01*
X148667894Y8847499D01*
X148451772Y9214258D01*
X148211512Y9340000D01*
X149340001Y9340000D01*
X149340001Y8216522D01*
X149214258Y8451772D01*
X148847499Y8667894D01*
X147179605Y7000000D01*
X148847499Y5332106D01*
X149214258Y5548228D01*
X149340001Y5788490D01*
X149340000Y-185783476D01*
X149214258Y-185548228D01*
X148847499Y-185332106D01*
X147179605Y-187000000D01*
X148847499Y-188667894D01*
X149214258Y-188451772D01*
X149340000Y-188211512D01*
X149340000Y-189340000D01*
X148216524Y-189340000D01*
X148451772Y-189214258D01*
X148667894Y-188847499D01*
X147000000Y-187179605D01*
X145332106Y-188847499D01*
X145548228Y-189214258D01*
X145788488Y-189340000D01*
X54216524Y-189340000D01*
X54451772Y-189214258D01*
X54667894Y-188847499D01*
X53000000Y-187179605D01*
X51332106Y-188847499D01*
X51548228Y-189214258D01*
X51788488Y-189340000D01*
X50660000Y-189340000D01*
X50660000Y-188216524D01*
X50785742Y-188451772D01*
X51152501Y-188667894D01*
X52820395Y-187000000D01*
X53179605Y-187000000D01*
X54847499Y-188667894D01*
X55214258Y-188451772D01*
X55454938Y-187991895D01*
X55601275Y-187493902D01*
X55643509Y-187023071D01*
X144352352Y-187023071D01*
X144407727Y-187539159D01*
X144562721Y-188034526D01*
X144785742Y-188451772D01*
X145152501Y-188667894D01*
X146820395Y-187000000D01*
X145152501Y-185332106D01*
X144785742Y-185548228D01*
X144545062Y-186008105D01*
X144398725Y-186506098D01*
X144352352Y-187023071D01*
X55643509Y-187023071D01*
X55647648Y-186976929D01*
X55592273Y-186460841D01*
X55437279Y-185965474D01*
X55214258Y-185548228D01*
X54847499Y-185332106D01*
X53179605Y-187000000D01*
X52820395Y-187000000D01*
X51152501Y-185332106D01*
X50785742Y-185548228D01*
X50660000Y-185788488D01*
X50660000Y-185152501D01*
X51332106Y-185152501D01*
X53000000Y-186820395D01*
X54667894Y-185152501D01*
X145332106Y-185152501D01*
X147000000Y-186820395D01*
X148667894Y-185152501D01*
X148451772Y-184785742D01*
X147991895Y-184545062D01*
X147493902Y-184398725D01*
X146976929Y-184352352D01*
X146460841Y-184407727D01*
X145965474Y-184562721D01*
X145548228Y-184785742D01*
X145332106Y-185152501D01*
X54667894Y-185152501D01*
X54451772Y-184785742D01*
X53991895Y-184545062D01*
X53493902Y-184398725D01*
X52976929Y-184352352D01*
X52460841Y-184407727D01*
X51965474Y-184562721D01*
X51548228Y-184785742D01*
X51332106Y-185152501D01*
X50660000Y-185152501D01*
X50660000Y-171401674D01*
X54777932Y-171401674D01*
X55593908Y-172280530D01*
X56903840Y-173019437D01*
X58332756Y-173488591D01*
X59825743Y-173669963D01*
X61325428Y-173556583D01*
X62774176Y-173152807D01*
X64116314Y-172474153D01*
X64406092Y-172280530D01*
X65222068Y-171401674D01*
X74777932Y-171401674D01*
X75593908Y-172280530D01*
X76903840Y-173019437D01*
X78332756Y-173488591D01*
X79825743Y-173669963D01*
X81325428Y-173556583D01*
X82774176Y-173152807D01*
X84116314Y-172474153D01*
X84406092Y-172280530D01*
X85222068Y-171401674D01*
X94777932Y-171401674D01*
X95593908Y-172280530D01*
X96903840Y-173019437D01*
X98332756Y-173488591D01*
X99825743Y-173669963D01*
X101325428Y-173556583D01*
X102774176Y-173152807D01*
X104116314Y-172474153D01*
X104406092Y-172280530D01*
X105222068Y-171401674D01*
X114777932Y-171401674D01*
X115593908Y-172280530D01*
X116903840Y-173019437D01*
X118332756Y-173488591D01*
X119825743Y-173669963D01*
X121325428Y-173556583D01*
X122774176Y-173152807D01*
X124116314Y-172474153D01*
X124406092Y-172280530D01*
X125222068Y-171401674D01*
X134777932Y-171401674D01*
X135593908Y-172280530D01*
X136903840Y-173019437D01*
X138332756Y-173488591D01*
X139825743Y-173669963D01*
X141325428Y-173556583D01*
X142774176Y-173152807D01*
X144116314Y-172474153D01*
X144406092Y-172280530D01*
X145222068Y-171401674D01*
X140000000Y-166179605D01*
X134777932Y-171401674D01*
X125222068Y-171401674D01*
X120000000Y-166179605D01*
X114777932Y-171401674D01*
X105222068Y-171401674D01*
X100000000Y-166179605D01*
X94777932Y-171401674D01*
X85222068Y-171401674D01*
X80000000Y-166179605D01*
X74777932Y-171401674D01*
X65222068Y-171401674D01*
X60000000Y-166179605D01*
X54777932Y-171401674D01*
X50660000Y-171401674D01*
X50660000Y-165825743D01*
X52330037Y-165825743D01*
X52443417Y-167325428D01*
X52847193Y-168774176D01*
X53525847Y-170116314D01*
X53719470Y-170406092D01*
X54598326Y-171222068D01*
X59820395Y-166000000D01*
X60179605Y-166000000D01*
X65401674Y-171222068D01*
X66280530Y-170406092D01*
X67019437Y-169096160D01*
X67488591Y-167667244D01*
X67669963Y-166174257D01*
X67643615Y-165825743D01*
X72330037Y-165825743D01*
X72443417Y-167325428D01*
X72847193Y-168774176D01*
X73525847Y-170116314D01*
X73719470Y-170406092D01*
X74598326Y-171222068D01*
X79820395Y-166000000D01*
X80179605Y-166000000D01*
X85401674Y-171222068D01*
X86280530Y-170406092D01*
X87019437Y-169096160D01*
X87488591Y-167667244D01*
X87669963Y-166174257D01*
X87643615Y-165825743D01*
X92330037Y-165825743D01*
X92443417Y-167325428D01*
X92847193Y-168774176D01*
X93525847Y-170116314D01*
X93719470Y-170406092D01*
X94598326Y-171222068D01*
X99820395Y-166000000D01*
X100179605Y-166000000D01*
X105401674Y-171222068D01*
X106280530Y-170406092D01*
X107019437Y-169096160D01*
X107488591Y-167667244D01*
X107669963Y-166174257D01*
X107643615Y-165825743D01*
X112330037Y-165825743D01*
X112443417Y-167325428D01*
X112847193Y-168774176D01*
X113525847Y-170116314D01*
X113719470Y-170406092D01*
X114598326Y-171222068D01*
X119820395Y-166000000D01*
X120179605Y-166000000D01*
X125401674Y-171222068D01*
X126280530Y-170406092D01*
X127019437Y-169096160D01*
X127488591Y-167667244D01*
X127669963Y-166174257D01*
X127643615Y-165825743D01*
X132330037Y-165825743D01*
X132443417Y-167325428D01*
X132847193Y-168774176D01*
X133525847Y-170116314D01*
X133719470Y-170406092D01*
X134598326Y-171222068D01*
X139820395Y-166000000D01*
X140179605Y-166000000D01*
X145401674Y-171222068D01*
X146280530Y-170406092D01*
X147019437Y-169096160D01*
X147488591Y-167667244D01*
X147669963Y-166174257D01*
X147556583Y-164674572D01*
X147152807Y-163225824D01*
X146474153Y-161883686D01*
X146280530Y-161593908D01*
X145401674Y-160777932D01*
X140179605Y-166000000D01*
X139820395Y-166000000D01*
X134598326Y-160777932D01*
X133719470Y-161593908D01*
X132980563Y-162903840D01*
X132511409Y-164332756D01*
X132330037Y-165825743D01*
X127643615Y-165825743D01*
X127556583Y-164674572D01*
X127152807Y-163225824D01*
X126474153Y-161883686D01*
X126280530Y-161593908D01*
X125401674Y-160777932D01*
X120179605Y-166000000D01*
X119820395Y-166000000D01*
X114598326Y-160777932D01*
X113719470Y-161593908D01*
X112980563Y-162903840D01*
X112511409Y-164332756D01*
X112330037Y-165825743D01*
X107643615Y-165825743D01*
X107556583Y-164674572D01*
X107152807Y-163225824D01*
X106474153Y-161883686D01*
X106280530Y-161593908D01*
X105401674Y-160777932D01*
X100179605Y-166000000D01*
X99820395Y-166000000D01*
X94598326Y-160777932D01*
X93719470Y-161593908D01*
X92980563Y-162903840D01*
X92511409Y-164332756D01*
X92330037Y-165825743D01*
X87643615Y-165825743D01*
X87556583Y-164674572D01*
X87152807Y-163225824D01*
X86474153Y-161883686D01*
X86280530Y-161593908D01*
X85401674Y-160777932D01*
X80179605Y-166000000D01*
X79820395Y-166000000D01*
X74598326Y-160777932D01*
X73719470Y-161593908D01*
X72980563Y-162903840D01*
X72511409Y-164332756D01*
X72330037Y-165825743D01*
X67643615Y-165825743D01*
X67556583Y-164674572D01*
X67152807Y-163225824D01*
X66474153Y-161883686D01*
X66280530Y-161593908D01*
X65401674Y-160777932D01*
X60179605Y-166000000D01*
X59820395Y-166000000D01*
X54598326Y-160777932D01*
X53719470Y-161593908D01*
X52980563Y-162903840D01*
X52511409Y-164332756D01*
X52330037Y-165825743D01*
X50660000Y-165825743D01*
X50660000Y-160598326D01*
X54777932Y-160598326D01*
X60000000Y-165820395D01*
X65222068Y-160598326D01*
X74777932Y-160598326D01*
X80000000Y-165820395D01*
X85222068Y-160598326D01*
X94777932Y-160598326D01*
X100000000Y-165820395D01*
X105222068Y-160598326D01*
X114777932Y-160598326D01*
X120000000Y-165820395D01*
X125222068Y-160598326D01*
X134777932Y-160598326D01*
X140000000Y-165820395D01*
X145222068Y-160598326D01*
X144406092Y-159719470D01*
X143096160Y-158980563D01*
X141667244Y-158511409D01*
X140174257Y-158330037D01*
X138674572Y-158443417D01*
X137225824Y-158847193D01*
X135883686Y-159525847D01*
X135593908Y-159719470D01*
X134777932Y-160598326D01*
X125222068Y-160598326D01*
X124406092Y-159719470D01*
X123096160Y-158980563D01*
X121667244Y-158511409D01*
X120174257Y-158330037D01*
X118674572Y-158443417D01*
X117225824Y-158847193D01*
X115883686Y-159525847D01*
X115593908Y-159719470D01*
X114777932Y-160598326D01*
X105222068Y-160598326D01*
X104406092Y-159719470D01*
X103096160Y-158980563D01*
X101667244Y-158511409D01*
X100174257Y-158330037D01*
X98674572Y-158443417D01*
X97225824Y-158847193D01*
X95883686Y-159525847D01*
X95593908Y-159719470D01*
X94777932Y-160598326D01*
X85222068Y-160598326D01*
X84406092Y-159719470D01*
X83096160Y-158980563D01*
X81667244Y-158511409D01*
X80174257Y-158330037D01*
X78674572Y-158443417D01*
X77225824Y-158847193D01*
X75883686Y-159525847D01*
X75593908Y-159719470D01*
X74777932Y-160598326D01*
X65222068Y-160598326D01*
X64406092Y-159719470D01*
X63096160Y-158980563D01*
X61667244Y-158511409D01*
X60174257Y-158330037D01*
X58674572Y-158443417D01*
X57225824Y-158847193D01*
X55883686Y-159525847D01*
X55593908Y-159719470D01*
X54777932Y-160598326D01*
X50660000Y-160598326D01*
X50660000Y-149401674D01*
X54777932Y-149401674D01*
X55593908Y-150280530D01*
X56903840Y-151019437D01*
X58332756Y-151488591D01*
X59825743Y-151669963D01*
X61325428Y-151556583D01*
X62774176Y-151152807D01*
X64116314Y-150474153D01*
X64406092Y-150280530D01*
X65222068Y-149401674D01*
X74777932Y-149401674D01*
X75593908Y-150280530D01*
X76903840Y-151019437D01*
X78332756Y-151488591D01*
X79825743Y-151669963D01*
X81325428Y-151556583D01*
X82774176Y-151152807D01*
X84116314Y-150474153D01*
X84406092Y-150280530D01*
X85222068Y-149401674D01*
X94777932Y-149401674D01*
X95593908Y-150280530D01*
X96903840Y-151019437D01*
X98332756Y-151488591D01*
X99825743Y-151669963D01*
X101325428Y-151556583D01*
X102774176Y-151152807D01*
X104116314Y-150474153D01*
X104406092Y-150280530D01*
X105222068Y-149401674D01*
X114777932Y-149401674D01*
X115593908Y-150280530D01*
X116903840Y-151019437D01*
X118332756Y-151488591D01*
X119825743Y-151669963D01*
X121325428Y-151556583D01*
X122774176Y-151152807D01*
X124116314Y-150474153D01*
X124406092Y-150280530D01*
X125222068Y-149401674D01*
X134777932Y-149401674D01*
X135593908Y-150280530D01*
X136903840Y-151019437D01*
X138332756Y-151488591D01*
X139825743Y-151669963D01*
X141325428Y-151556583D01*
X142774176Y-151152807D01*
X144116314Y-150474153D01*
X144406092Y-150280530D01*
X145222068Y-149401674D01*
X140000000Y-144179605D01*
X134777932Y-149401674D01*
X125222068Y-149401674D01*
X120000000Y-144179605D01*
X114777932Y-149401674D01*
X105222068Y-149401674D01*
X100000000Y-144179605D01*
X94777932Y-149401674D01*
X85222068Y-149401674D01*
X80000000Y-144179605D01*
X74777932Y-149401674D01*
X65222068Y-149401674D01*
X60000000Y-144179605D01*
X54777932Y-149401674D01*
X50660000Y-149401674D01*
X50660000Y-143825743D01*
X52330037Y-143825743D01*
X52443417Y-145325428D01*
X52847193Y-146774176D01*
X53525847Y-148116314D01*
X53719470Y-148406092D01*
X54598326Y-149222068D01*
X59820395Y-144000000D01*
X60179605Y-144000000D01*
X65401674Y-149222068D01*
X66280530Y-148406092D01*
X67019437Y-147096160D01*
X67488591Y-145667244D01*
X67669963Y-144174257D01*
X67643615Y-143825743D01*
X72330037Y-143825743D01*
X72443417Y-145325428D01*
X72847193Y-146774176D01*
X73525847Y-148116314D01*
X73719470Y-148406092D01*
X74598326Y-149222068D01*
X79820395Y-144000000D01*
X80179605Y-144000000D01*
X85401674Y-149222068D01*
X86280530Y-148406092D01*
X87019437Y-147096160D01*
X87488591Y-145667244D01*
X87669963Y-144174257D01*
X87643615Y-143825743D01*
X92330037Y-143825743D01*
X92443417Y-145325428D01*
X92847193Y-146774176D01*
X93525847Y-148116314D01*
X93719470Y-148406092D01*
X94598326Y-149222068D01*
X99820395Y-144000000D01*
X100179605Y-144000000D01*
X105401674Y-149222068D01*
X106280530Y-148406092D01*
X107019437Y-147096160D01*
X107488591Y-145667244D01*
X107669963Y-144174257D01*
X107643615Y-143825743D01*
X112330037Y-143825743D01*
X112443417Y-145325428D01*
X112847193Y-146774176D01*
X113525847Y-148116314D01*
X113719470Y-148406092D01*
X114598326Y-149222068D01*
X119820395Y-144000000D01*
X120179605Y-144000000D01*
X125401674Y-149222068D01*
X126280530Y-148406092D01*
X127019437Y-147096160D01*
X127488591Y-145667244D01*
X127669963Y-144174257D01*
X127643615Y-143825743D01*
X132330037Y-143825743D01*
X132443417Y-145325428D01*
X132847193Y-146774176D01*
X133525847Y-148116314D01*
X133719470Y-148406092D01*
X134598326Y-149222068D01*
X139820395Y-144000000D01*
X140179605Y-144000000D01*
X145401674Y-149222068D01*
X146280530Y-148406092D01*
X147019437Y-147096160D01*
X147488591Y-145667244D01*
X147669963Y-144174257D01*
X147556583Y-142674572D01*
X147152807Y-141225824D01*
X146474153Y-139883686D01*
X146280530Y-139593908D01*
X145401674Y-138777932D01*
X140179605Y-144000000D01*
X139820395Y-144000000D01*
X134598326Y-138777932D01*
X133719470Y-139593908D01*
X132980563Y-140903840D01*
X132511409Y-142332756D01*
X132330037Y-143825743D01*
X127643615Y-143825743D01*
X127556583Y-142674572D01*
X127152807Y-141225824D01*
X126474153Y-139883686D01*
X126280530Y-139593908D01*
X125401674Y-138777932D01*
X120179605Y-144000000D01*
X119820395Y-144000000D01*
X114598326Y-138777932D01*
X113719470Y-139593908D01*
X112980563Y-140903840D01*
X112511409Y-142332756D01*
X112330037Y-143825743D01*
X107643615Y-143825743D01*
X107556583Y-142674572D01*
X107152807Y-141225824D01*
X106474153Y-139883686D01*
X106280530Y-139593908D01*
X105401674Y-138777932D01*
X100179605Y-144000000D01*
X99820395Y-144000000D01*
X94598326Y-138777932D01*
X93719470Y-139593908D01*
X92980563Y-140903840D01*
X92511409Y-142332756D01*
X92330037Y-143825743D01*
X87643615Y-143825743D01*
X87556583Y-142674572D01*
X87152807Y-141225824D01*
X86474153Y-139883686D01*
X86280530Y-139593908D01*
X85401674Y-138777932D01*
X80179605Y-144000000D01*
X79820395Y-144000000D01*
X74598326Y-138777932D01*
X73719470Y-139593908D01*
X72980563Y-140903840D01*
X72511409Y-142332756D01*
X72330037Y-143825743D01*
X67643615Y-143825743D01*
X67556583Y-142674572D01*
X67152807Y-141225824D01*
X66474153Y-139883686D01*
X66280530Y-139593908D01*
X65401674Y-138777932D01*
X60179605Y-144000000D01*
X59820395Y-144000000D01*
X54598326Y-138777932D01*
X53719470Y-139593908D01*
X52980563Y-140903840D01*
X52511409Y-142332756D01*
X52330037Y-143825743D01*
X50660000Y-143825743D01*
X50660000Y-138598326D01*
X54777932Y-138598326D01*
X60000000Y-143820395D01*
X65222068Y-138598326D01*
X74777932Y-138598326D01*
X80000000Y-143820395D01*
X85222068Y-138598326D01*
X94777932Y-138598326D01*
X100000000Y-143820395D01*
X105222068Y-138598326D01*
X114777932Y-138598326D01*
X120000000Y-143820395D01*
X125222068Y-138598326D01*
X134777932Y-138598326D01*
X140000000Y-143820395D01*
X145222068Y-138598326D01*
X144406092Y-137719470D01*
X143096160Y-136980563D01*
X141667244Y-136511409D01*
X140174257Y-136330037D01*
X138674572Y-136443417D01*
X137225824Y-136847193D01*
X135883686Y-137525847D01*
X135593908Y-137719470D01*
X134777932Y-138598326D01*
X125222068Y-138598326D01*
X124406092Y-137719470D01*
X123096160Y-136980563D01*
X121667244Y-136511409D01*
X120174257Y-136330037D01*
X118674572Y-136443417D01*
X117225824Y-136847193D01*
X115883686Y-137525847D01*
X115593908Y-137719470D01*
X114777932Y-138598326D01*
X105222068Y-138598326D01*
X104406092Y-137719470D01*
X103096160Y-136980563D01*
X101667244Y-136511409D01*
X100174257Y-136330037D01*
X98674572Y-136443417D01*
X97225824Y-136847193D01*
X95883686Y-137525847D01*
X95593908Y-137719470D01*
X94777932Y-138598326D01*
X85222068Y-138598326D01*
X84406092Y-137719470D01*
X83096160Y-136980563D01*
X81667244Y-136511409D01*
X80174257Y-136330037D01*
X78674572Y-136443417D01*
X77225824Y-136847193D01*
X75883686Y-137525847D01*
X75593908Y-137719470D01*
X74777932Y-138598326D01*
X65222068Y-138598326D01*
X64406092Y-137719470D01*
X63096160Y-136980563D01*
X61667244Y-136511409D01*
X60174257Y-136330037D01*
X58674572Y-136443417D01*
X57225824Y-136847193D01*
X55883686Y-137525847D01*
X55593908Y-137719470D01*
X54777932Y-138598326D01*
X50660000Y-138598326D01*
X50660000Y-119401674D01*
X129777932Y-119401674D01*
X130593908Y-120280530D01*
X131903840Y-121019437D01*
X133332756Y-121488591D01*
X134825743Y-121669963D01*
X136325428Y-121556583D01*
X137774176Y-121152807D01*
X139116314Y-120474153D01*
X139406092Y-120280530D01*
X140222068Y-119401674D01*
X135000000Y-114179605D01*
X129777932Y-119401674D01*
X50660000Y-119401674D01*
X50660000Y-117624971D01*
X86554634Y-117624971D01*
X87070783Y-118247788D01*
X87955768Y-118737630D01*
X88919314Y-119045407D01*
X89924389Y-119159293D01*
X90932370Y-119074910D01*
X91904520Y-118795501D01*
X92803481Y-118331803D01*
X92929217Y-118247788D01*
X93445366Y-117624971D01*
X90000000Y-114179605D01*
X86554634Y-117624971D01*
X50660000Y-117624971D01*
X50660000Y-113924389D01*
X84840707Y-113924389D01*
X84925090Y-114932370D01*
X85204499Y-115904520D01*
X85668197Y-116803481D01*
X85752212Y-116929217D01*
X86375029Y-117445366D01*
X89820395Y-114000000D01*
X90179605Y-114000000D01*
X93624971Y-117445366D01*
X94247788Y-116929217D01*
X94737630Y-116044232D01*
X95045407Y-115080686D01*
X95159293Y-114075611D01*
X95138376Y-113825743D01*
X127330037Y-113825743D01*
X127443417Y-115325428D01*
X127847193Y-116774176D01*
X128525847Y-118116314D01*
X128719470Y-118406092D01*
X129598326Y-119222068D01*
X134820395Y-114000000D01*
X135179605Y-114000000D01*
X140401674Y-119222068D01*
X141280530Y-118406092D01*
X142019437Y-117096160D01*
X142488591Y-115667244D01*
X142669963Y-114174257D01*
X142556583Y-112674572D01*
X142152807Y-111225824D01*
X141474153Y-109883686D01*
X141280530Y-109593908D01*
X140401674Y-108777932D01*
X135179605Y-114000000D01*
X134820395Y-114000000D01*
X129598326Y-108777932D01*
X128719470Y-109593908D01*
X127980563Y-110903840D01*
X127511409Y-112332756D01*
X127330037Y-113825743D01*
X95138376Y-113825743D01*
X95074910Y-113067630D01*
X94795501Y-112095480D01*
X94331803Y-111196519D01*
X94247788Y-111070783D01*
X93624971Y-110554634D01*
X90179605Y-114000000D01*
X89820395Y-114000000D01*
X86375029Y-110554634D01*
X85752212Y-111070783D01*
X85262370Y-111955768D01*
X84954593Y-112919314D01*
X84840707Y-113924389D01*
X50660000Y-113924389D01*
X50660000Y-110375029D01*
X86554634Y-110375029D01*
X90000000Y-113820395D01*
X93445366Y-110375029D01*
X92929217Y-109752212D01*
X92044232Y-109262370D01*
X91080686Y-108954593D01*
X90075611Y-108840707D01*
X89067630Y-108925090D01*
X88095480Y-109204499D01*
X87196519Y-109668197D01*
X87070783Y-109752212D01*
X86554634Y-110375029D01*
X50660000Y-110375029D01*
X50660000Y-108598326D01*
X129777932Y-108598326D01*
X135000000Y-113820395D01*
X140222068Y-108598326D01*
X139406092Y-107719470D01*
X138096160Y-106980563D01*
X136667244Y-106511409D01*
X135174257Y-106330037D01*
X133674572Y-106443417D01*
X132225824Y-106847193D01*
X130883686Y-107525847D01*
X130593908Y-107719470D01*
X129777932Y-108598326D01*
X50660000Y-108598326D01*
X50660000Y-89779872D01*
X53765000Y-89779872D01*
X53765000Y-90220128D01*
X53850890Y-90651925D01*
X54019369Y-91058669D01*
X54263962Y-91424729D01*
X54575271Y-91736038D01*
X54941331Y-91980631D01*
X55348075Y-92149110D01*
X55779872Y-92235000D01*
X56220128Y-92235000D01*
X56651925Y-92149110D01*
X57058669Y-91980631D01*
X57424729Y-91736038D01*
X57736038Y-91424729D01*
X57980631Y-91058669D01*
X58149110Y-90651925D01*
X58235000Y-90220128D01*
X58235000Y-89779872D01*
X141765000Y-89779872D01*
X141765000Y-90220128D01*
X141850890Y-90651925D01*
X142019369Y-91058669D01*
X142263962Y-91424729D01*
X142575271Y-91736038D01*
X142941331Y-91980631D01*
X143348075Y-92149110D01*
X143779872Y-92235000D01*
X144220128Y-92235000D01*
X144651925Y-92149110D01*
X145058669Y-91980631D01*
X145424729Y-91736038D01*
X145736038Y-91424729D01*
X145980631Y-91058669D01*
X146149110Y-90651925D01*
X146235000Y-90220128D01*
X146235000Y-89779872D01*
X146149110Y-89348075D01*
X145980631Y-88941331D01*
X145736038Y-88575271D01*
X145424729Y-88263962D01*
X145058669Y-88019369D01*
X144651925Y-87850890D01*
X144220128Y-87765000D01*
X143779872Y-87765000D01*
X143348075Y-87850890D01*
X142941331Y-88019369D01*
X142575271Y-88263962D01*
X142263962Y-88575271D01*
X142019369Y-88941331D01*
X141850890Y-89348075D01*
X141765000Y-89779872D01*
X58235000Y-89779872D01*
X58149110Y-89348075D01*
X57980631Y-88941331D01*
X57736038Y-88575271D01*
X57424729Y-88263962D01*
X57058669Y-88019369D01*
X56651925Y-87850890D01*
X56220128Y-87765000D01*
X55779872Y-87765000D01*
X55348075Y-87850890D01*
X54941331Y-88019369D01*
X54575271Y-88263962D01*
X54263962Y-88575271D01*
X54019369Y-88941331D01*
X53850890Y-89348075D01*
X53765000Y-89779872D01*
X50660000Y-89779872D01*
X50660000Y-85401674D01*
X104777932Y-85401674D01*
X105593908Y-86280530D01*
X106903840Y-87019437D01*
X108332756Y-87488591D01*
X109825743Y-87669963D01*
X111325428Y-87556583D01*
X112774176Y-87152807D01*
X114116314Y-86474153D01*
X114406092Y-86280530D01*
X115222068Y-85401674D01*
X110000000Y-80179605D01*
X104777932Y-85401674D01*
X50660000Y-85401674D01*
X50660000Y-83624971D01*
X61554634Y-83624971D01*
X62070783Y-84247788D01*
X62955768Y-84737630D01*
X63919314Y-85045407D01*
X64924389Y-85159293D01*
X65932370Y-85074910D01*
X66904520Y-84795501D01*
X67803481Y-84331803D01*
X67929217Y-84247788D01*
X68445366Y-83624971D01*
X65000000Y-80179605D01*
X61554634Y-83624971D01*
X50660000Y-83624971D01*
X50660000Y-79924389D01*
X59840707Y-79924389D01*
X59925090Y-80932370D01*
X60204499Y-81904520D01*
X60668197Y-82803481D01*
X60752212Y-82929217D01*
X61375029Y-83445366D01*
X64820395Y-80000000D01*
X65179605Y-80000000D01*
X68624971Y-83445366D01*
X69247788Y-82929217D01*
X69737630Y-82044232D01*
X70045407Y-81080686D01*
X70159293Y-80075611D01*
X70138376Y-79825743D01*
X102330037Y-79825743D01*
X102443417Y-81325428D01*
X102847193Y-82774176D01*
X103525847Y-84116314D01*
X103719470Y-84406092D01*
X104598326Y-85222068D01*
X109820395Y-80000000D01*
X110179605Y-80000000D01*
X115401674Y-85222068D01*
X116280530Y-84406092D01*
X117019437Y-83096160D01*
X117488591Y-81667244D01*
X117669963Y-80174257D01*
X117556583Y-78674572D01*
X117152807Y-77225824D01*
X116474153Y-75883686D01*
X116280530Y-75593908D01*
X115401674Y-74777932D01*
X110179605Y-80000000D01*
X109820395Y-80000000D01*
X104598326Y-74777932D01*
X103719470Y-75593908D01*
X102980563Y-76903840D01*
X102511409Y-78332756D01*
X102330037Y-79825743D01*
X70138376Y-79825743D01*
X70074910Y-79067630D01*
X69795501Y-78095480D01*
X69331803Y-77196519D01*
X69247788Y-77070783D01*
X68624971Y-76554634D01*
X65179605Y-80000000D01*
X64820395Y-80000000D01*
X61375029Y-76554634D01*
X60752212Y-77070783D01*
X60262370Y-77955768D01*
X59954593Y-78919314D01*
X59840707Y-79924389D01*
X50660000Y-79924389D01*
X50660000Y-76375029D01*
X61554634Y-76375029D01*
X65000000Y-79820395D01*
X68445366Y-76375029D01*
X67929217Y-75752212D01*
X67044232Y-75262370D01*
X66080686Y-74954593D01*
X65075611Y-74840707D01*
X64067630Y-74925090D01*
X63095480Y-75204499D01*
X62196519Y-75668197D01*
X62070783Y-75752212D01*
X61554634Y-76375029D01*
X50660000Y-76375029D01*
X50660000Y-74598326D01*
X104777932Y-74598326D01*
X110000000Y-79820395D01*
X115222068Y-74598326D01*
X114406092Y-73719470D01*
X113096160Y-72980563D01*
X111667244Y-72511409D01*
X110174257Y-72330037D01*
X108674572Y-72443417D01*
X107225824Y-72847193D01*
X105883686Y-73525847D01*
X105593908Y-73719470D01*
X104777932Y-74598326D01*
X50660000Y-74598326D01*
X50660000Y-54401674D01*
X129777932Y-54401674D01*
X130593908Y-55280530D01*
X131903840Y-56019437D01*
X133332756Y-56488591D01*
X134825743Y-56669963D01*
X136325428Y-56556583D01*
X137774176Y-56152807D01*
X139116314Y-55474153D01*
X139406092Y-55280530D01*
X140222068Y-54401674D01*
X135000000Y-49179605D01*
X129777932Y-54401674D01*
X50660000Y-54401674D01*
X50660000Y-52624971D01*
X86554634Y-52624971D01*
X87070783Y-53247788D01*
X87955768Y-53737630D01*
X88919314Y-54045407D01*
X89924389Y-54159293D01*
X90932370Y-54074910D01*
X91904520Y-53795501D01*
X92803481Y-53331803D01*
X92929217Y-53247788D01*
X93445366Y-52624971D01*
X90000000Y-49179605D01*
X86554634Y-52624971D01*
X50660000Y-52624971D01*
X50660000Y-48924389D01*
X84840707Y-48924389D01*
X84925090Y-49932370D01*
X85204499Y-50904520D01*
X85668197Y-51803481D01*
X85752212Y-51929217D01*
X86375029Y-52445366D01*
X89820395Y-49000000D01*
X90179605Y-49000000D01*
X93624971Y-52445366D01*
X94247788Y-51929217D01*
X94737630Y-51044232D01*
X95045407Y-50080686D01*
X95159293Y-49075611D01*
X95138376Y-48825743D01*
X127330037Y-48825743D01*
X127443417Y-50325428D01*
X127847193Y-51774176D01*
X128525847Y-53116314D01*
X128719470Y-53406092D01*
X129598326Y-54222068D01*
X134820395Y-49000000D01*
X135179605Y-49000000D01*
X140401674Y-54222068D01*
X141280530Y-53406092D01*
X142019437Y-52096160D01*
X142488591Y-50667244D01*
X142669963Y-49174257D01*
X142556583Y-47674572D01*
X142152807Y-46225824D01*
X141474153Y-44883686D01*
X141280530Y-44593908D01*
X140401674Y-43777932D01*
X135179605Y-49000000D01*
X134820395Y-49000000D01*
X129598326Y-43777932D01*
X128719470Y-44593908D01*
X127980563Y-45903840D01*
X127511409Y-47332756D01*
X127330037Y-48825743D01*
X95138376Y-48825743D01*
X95074910Y-48067630D01*
X94795501Y-47095480D01*
X94331803Y-46196519D01*
X94247788Y-46070783D01*
X93624971Y-45554634D01*
X90179605Y-49000000D01*
X89820395Y-49000000D01*
X86375029Y-45554634D01*
X85752212Y-46070783D01*
X85262370Y-46955768D01*
X84954593Y-47919314D01*
X84840707Y-48924389D01*
X50660000Y-48924389D01*
X50660000Y-45375029D01*
X86554634Y-45375029D01*
X90000000Y-48820395D01*
X93445366Y-45375029D01*
X92929217Y-44752212D01*
X92044232Y-44262370D01*
X91080686Y-43954593D01*
X90075611Y-43840707D01*
X89067630Y-43925090D01*
X88095480Y-44204499D01*
X87196519Y-44668197D01*
X87070783Y-44752212D01*
X86554634Y-45375029D01*
X50660000Y-45375029D01*
X50660000Y-43598326D01*
X129777932Y-43598326D01*
X135000000Y-48820395D01*
X140222068Y-43598326D01*
X139406092Y-42719470D01*
X138096160Y-41980563D01*
X136667244Y-41511409D01*
X135174257Y-41330037D01*
X133674572Y-41443417D01*
X132225824Y-41847193D01*
X130883686Y-42525847D01*
X130593908Y-42719470D01*
X129777932Y-43598326D01*
X50660000Y-43598326D01*
X50660000Y-20401674D01*
X104777932Y-20401674D01*
X105593908Y-21280530D01*
X106903840Y-22019437D01*
X108332756Y-22488591D01*
X109825743Y-22669963D01*
X111325428Y-22556583D01*
X112774176Y-22152807D01*
X114116314Y-21474153D01*
X114406092Y-21280530D01*
X115222068Y-20401674D01*
X110000000Y-15179605D01*
X104777932Y-20401674D01*
X50660000Y-20401674D01*
X50660000Y-18624971D01*
X61554634Y-18624971D01*
X62070783Y-19247788D01*
X62955768Y-19737630D01*
X63919314Y-20045407D01*
X64924389Y-20159293D01*
X65932370Y-20074910D01*
X66904520Y-19795501D01*
X67803481Y-19331803D01*
X67929217Y-19247788D01*
X68445366Y-18624971D01*
X65000000Y-15179605D01*
X61554634Y-18624971D01*
X50660000Y-18624971D01*
X50660000Y-14924389D01*
X59840707Y-14924389D01*
X59925090Y-15932370D01*
X60204499Y-16904520D01*
X60668197Y-17803481D01*
X60752212Y-17929217D01*
X61375029Y-18445366D01*
X64820395Y-15000000D01*
X65179605Y-15000000D01*
X68624971Y-18445366D01*
X69247788Y-17929217D01*
X69737630Y-17044232D01*
X70045407Y-16080686D01*
X70159293Y-15075611D01*
X70138376Y-14825743D01*
X102330037Y-14825743D01*
X102443417Y-16325428D01*
X102847193Y-17774176D01*
X103525847Y-19116314D01*
X103719470Y-19406092D01*
X104598326Y-20222068D01*
X109820395Y-15000000D01*
X110179605Y-15000000D01*
X115401674Y-20222068D01*
X116280530Y-19406092D01*
X117019437Y-18096160D01*
X117488591Y-16667244D01*
X117669963Y-15174257D01*
X117556583Y-13674572D01*
X117152807Y-12225824D01*
X116474153Y-10883686D01*
X116280530Y-10593908D01*
X115401674Y-9777932D01*
X110179605Y-15000000D01*
X109820395Y-15000000D01*
X104598326Y-9777932D01*
X103719470Y-10593908D01*
X102980563Y-11903840D01*
X102511409Y-13332756D01*
X102330037Y-14825743D01*
X70138376Y-14825743D01*
X70074910Y-14067630D01*
X69795501Y-13095480D01*
X69331803Y-12196519D01*
X69247788Y-12070783D01*
X68624971Y-11554634D01*
X65179605Y-15000000D01*
X64820395Y-15000000D01*
X61375029Y-11554634D01*
X60752212Y-12070783D01*
X60262370Y-12955768D01*
X59954593Y-13919314D01*
X59840707Y-14924389D01*
X50660000Y-14924389D01*
X50660000Y-11375029D01*
X61554634Y-11375029D01*
X65000000Y-14820395D01*
X68445366Y-11375029D01*
X67929217Y-10752212D01*
X67044232Y-10262370D01*
X66080686Y-9954593D01*
X65075611Y-9840707D01*
X64067630Y-9925090D01*
X63095480Y-10204499D01*
X62196519Y-10668197D01*
X62070783Y-10752212D01*
X61554634Y-11375029D01*
X50660000Y-11375029D01*
X50660000Y-9598326D01*
X104777932Y-9598326D01*
X110000000Y-14820395D01*
X115222068Y-9598326D01*
X114406092Y-8719470D01*
X113096160Y-7980563D01*
X111667244Y-7511409D01*
X110174257Y-7330037D01*
X108674572Y-7443417D01*
X107225824Y-7847193D01*
X105883686Y-8525847D01*
X105593908Y-8719470D01*
X104777932Y-9598326D01*
X50660000Y-9598326D01*
X50660000Y-4779872D01*
X53765000Y-4779872D01*
X53765000Y-5220128D01*
X53850890Y-5651925D01*
X54019369Y-6058669D01*
X54263962Y-6424729D01*
X54575271Y-6736038D01*
X54941331Y-6980631D01*
X55348075Y-7149110D01*
X55779872Y-7235000D01*
X56220128Y-7235000D01*
X56651925Y-7149110D01*
X57058669Y-6980631D01*
X57424729Y-6736038D01*
X57736038Y-6424729D01*
X57980631Y-6058669D01*
X58149110Y-5651925D01*
X58235000Y-5220128D01*
X58235000Y-4779872D01*
X141765000Y-4779872D01*
X141765000Y-5220128D01*
X141850890Y-5651925D01*
X142019369Y-6058669D01*
X142263962Y-6424729D01*
X142575271Y-6736038D01*
X142941331Y-6980631D01*
X143348075Y-7149110D01*
X143779872Y-7235000D01*
X144220128Y-7235000D01*
X144651925Y-7149110D01*
X145058669Y-6980631D01*
X145424729Y-6736038D01*
X145736038Y-6424729D01*
X145980631Y-6058669D01*
X146149110Y-5651925D01*
X146235000Y-5220128D01*
X146235000Y-4779872D01*
X146149110Y-4348075D01*
X145980631Y-3941331D01*
X145736038Y-3575271D01*
X145424729Y-3263962D01*
X145058669Y-3019369D01*
X144651925Y-2850890D01*
X144220128Y-2765000D01*
X143779872Y-2765000D01*
X143348075Y-2850890D01*
X142941331Y-3019369D01*
X142575271Y-3263962D01*
X142263962Y-3575271D01*
X142019369Y-3941331D01*
X141850890Y-4348075D01*
X141765000Y-4779872D01*
X58235000Y-4779872D01*
X58149110Y-4348075D01*
X57980631Y-3941331D01*
X57736038Y-3575271D01*
X57424729Y-3263962D01*
X57058669Y-3019369D01*
X56651925Y-2850890D01*
X56220128Y-2765000D01*
X55779872Y-2765000D01*
X55348075Y-2850890D01*
X54941331Y-3019369D01*
X54575271Y-3263962D01*
X54263962Y-3575271D01*
X54019369Y-3941331D01*
X53850890Y-4348075D01*
X53765000Y-4779872D01*
X50660000Y-4779872D01*
X50660000Y5152501D01*
X51332106Y5152501D01*
X51548228Y4785742D01*
X52008105Y4545062D01*
X52506098Y4398725D01*
X53023071Y4352352D01*
X53539159Y4407727D01*
X54034526Y4562721D01*
X54451772Y4785742D01*
X54667894Y5152501D01*
X145332106Y5152501D01*
X145548228Y4785742D01*
X146008105Y4545062D01*
X146506098Y4398725D01*
X147023071Y4352352D01*
X147539159Y4407727D01*
X148034526Y4562721D01*
X148451772Y4785742D01*
X148667894Y5152501D01*
X147000000Y6820395D01*
X145332106Y5152501D01*
X54667894Y5152501D01*
X53000000Y6820395D01*
X51332106Y5152501D01*
X50660000Y5152501D01*
X50660000Y5783476D01*
X50785742Y5548228D01*
X51152501Y5332106D01*
X52820395Y7000000D01*
X53179605Y7000000D01*
X54847499Y5332106D01*
X55214258Y5548228D01*
X55454938Y6008105D01*
X55601275Y6506098D01*
X55643509Y6976929D01*
X144352352Y6976929D01*
X144407727Y6460841D01*
X144562721Y5965474D01*
X144785742Y5548228D01*
X145152501Y5332106D01*
X146820395Y7000000D01*
X145152501Y8667894D01*
X144785742Y8451772D01*
X144545062Y7991895D01*
X144398725Y7493902D01*
X144352352Y6976929D01*
X55643509Y6976929D01*
X55647648Y7023071D01*
X55592273Y7539159D01*
X55437279Y8034526D01*
X55214258Y8451772D01*
X54847499Y8667894D01*
X53179605Y7000000D01*
X52820395Y7000000D01*
X51152501Y8667894D01*
X50785742Y8451772D01*
X50660000Y8211512D01*
X50660000Y9340000D01*
X51783476Y9340000D01*
X51548228Y9214258D01*
M02*
