M48
; DRILL file {KiCad 5.1.5-52549c5~84~ubuntu18.04.1} date Sat 30 May 2020 11:36:31 AM EDT
; FORMAT={-:-/ absolute / inch / decimal}
; #@! TF.CreationDate,2020-05-30T11:36:31-04:00
; #@! TF.GenerationSoftware,Kicad,Pcbnew,5.1.5-52549c5~84~ubuntu18.04.1
; #@! TF.FileFunction,Plated,1,2,PTH
FMAT,2
INCH
T1C0.0394
T2C0.0472
T3C0.0709
T4C0.0827
%
G90
G05
T1
X5.689Y-4.0354
X5.689Y-4.1339
X5.689Y-4.2323
X5.689Y-1.4764
X5.689Y-1.5748
X5.689Y-1.6732
X7.4902Y-3.3858
X7.5902Y-3.3858
X7.6902Y-3.3858
X7.7902Y-3.3858
X5.5906Y-2.3228
X5.6906Y-2.3228
X5.7906Y-2.3228
X5.8906Y-2.3228
X5.9906Y-2.3228
X6.0906Y-2.3228
X6.1906Y-2.3228
X6.2906Y-2.3228
X6.0811Y-4.6063
X6.1811Y-4.6063
T2
X5.748Y-5.7874
X5.848Y-5.7874
X6.2598Y-5.7874
X6.3598Y-5.7874
X6.8504Y-1.6535
X6.9504Y-1.6535
X7.0504Y-1.6535
X6.4173Y-1.6535
X6.5173Y-1.6535
X6.6173Y-1.6535
X6.4173Y-1.3386
X6.5173Y-1.3386
X6.6173Y-1.3386
X6.8504Y-1.3386
X6.9504Y-1.3386
X7.0504Y-1.3386
T3
X5.9843Y-3.9449
X5.9843Y-4.3228
X5.9843Y-1.3858
X5.9843Y-1.7638
T4
X6.9685Y-2.7283
X6.9685Y-2.9134
X6.9685Y-3.0984
X6.9685Y-5.2874
X6.9685Y-5.4724
X6.9685Y-5.6575
T0
M30
